<svg xmlns="http://www.w3.org/2000/svg" width="17.686" height="17.688" viewBox="0 0 17.686 17.688">
  <path id="Path_20" data-name="Path 20" d="M2566.026,12908.563l6.411,6.41a6.426,6.426,0,0,0,9.062,0h0a1.184,1.184,0,0,0,0-1.669l-3.373-2.391a1.352,1.352,0,0,0-1.737.146l-.539.538a1.688,1.688,0,0,1-2.383,0l-4.066-4.065a1.689,1.689,0,0,1,0-2.383l.538-.539a1.351,1.351,0,0,0,.147-1.737l-2.391-3.373a1.184,1.184,0,0,0-1.669,0h0A6.427,6.427,0,0,0,2566.026,12908.563Z" transform="translate(-2564.157 -12899.156)" fill="#45484b"/>
</svg>
