<svg xmlns="http://www.w3.org/2000/svg" width="79.76" height="90" viewBox="0 0 79.76 90">
  <g id="Group_114" data-name="Group 114" transform="translate(-30 -30)">
    <path id="Path_129" data-name="Path 129" d="M36.475,101.92a3.881,3.881,0,0,1-1.7.391c-1.943,0-3.311-1.467-3.311-4.191s1.522-4.191,3.408-4.191a2.963,2.963,0,0,1,1.462.4l.27,1.6h.852L37.4,93.9a5.389,5.389,0,0,0-2.695-.671A4.668,4.668,0,0,0,30,98.12a4.591,4.591,0,0,0,4.721,4.888,5.886,5.886,0,0,0,2.822-.669l.056-2.026h-.852Z" fill="#221815"/>
    <path id="Path_130" data-name="Path 130" d="M41.706,96a3.23,3.23,0,0,0-3.185,3.52,3.2,3.2,0,1,0,6.369,0A3.245,3.245,0,0,0,41.706,96Zm0,6.355c-1.243,0-1.928-.964-1.928-2.835s.685-2.892,1.928-2.892c1.215,0,1.927,1.02,1.927,2.892S42.921,102.352,41.706,102.352Z" fill="#221815"/>
    <path id="Path_131" data-name="Path 131" d="M47.922,102.8h1.117v-.488l-1.127-.2c-.016-.749-.032-1.5-.032-2.245V94.558l.056-1.983-.195-.112-2.138.628v.49l1.159.139v6.146c0,.748-.015,1.5-.032,2.245l-1.127.2v.488h2.319Z" fill="#221815"/>
    <path id="Path_132" data-name="Path 132" d="M56.121,99.517a3.2,3.2,0,1,0-6.37,0,3.2,3.2,0,1,0,6.37,0Zm-5.113,0c0-1.872.685-2.892,1.928-2.892,1.215,0,1.928,1.02,1.928,2.892s-.713,2.835-1.928,2.835C51.693,102.352,51.008,101.388,51.008,99.517Z" fill="#221815"/>
    <path id="Path_133" data-name="Path 133" d="M59.6,102.981a3.219,3.219,0,0,0,2.483-1.314h.008l.149,1.244,1.885-.111v-.49l-.963-.207V98.189l.042-1.954-.14-.141-1.984.182v.489l1,.216-.038,4.094a2.989,2.989,0,0,1-2,.928c-.769,0-1.132-.433-1.132-1.676V98.189l.07-1.954-.14-.141-2.011.182v.489l1,.216-.039,3.486C57.783,102.31,58.481,102.981,59.6,102.981Z" fill="#221815"/>
    <path id="Path_134" data-name="Path 134" d="M67.379,98.833a3.481,3.481,0,0,1,1.178-1.827l.176.15a1.273,1.273,0,0,0,.838.336c.56,0,.812-.363.812-1.02A1.2,1.2,0,0,0,69.39,96c-.766,0-1.551.682-2.018,1.82l-.161-1.681L67,96l-1.9.838v.489l1.117.126c.028.558.042.991.042,1.759v.657c0,.628-.007,1.555-.022,2.258l-1.025.186v.489h3.352v-.489L67.4,102.1c-.015-.7-.022-1.611-.022-2.232Z" fill="#221815"/>
    <path id="Path_135" data-name="Path 135" d="M79.881,102.338a1.932,1.932,0,0,0,1.607.643,4.073,4.073,0,0,0,1.047-.14l.056-.587-1.353-.168L80.08,100.85a10.243,10.243,0,0,0,1.443-3.3l1.081-.187v-.559H79.783v.559l1.1.173a9.518,9.518,0,0,1-1.183,2.9c-.55-.589-1.049-1.127-1.618-1.746-.482-.529-.824-.9-1.128-1.244,1.43-.775,2.078-1.471,2.078-2.43,0-1.048-.741-1.788-2.109-1.788a2.025,2.025,0,0,0-2.263,1.97,3.3,3.3,0,0,0,.964,2.248l.064.075a3.234,3.234,0,0,0-2.118,2.9,2.706,2.706,0,0,0,2.962,2.556,3.631,3.631,0,0,0,2.845-1.207C79.538,101.957,79.7,102.14,79.881,102.338ZM76.906,93.72a1.216,1.216,0,0,1,1.229,1.327c0,.82-.626,1.441-1.506,2.034-.125-.146-.249-.294-.38-.455a2.336,2.336,0,0,1-.628-1.593A1.279,1.279,0,0,1,76.906,93.72Zm-.042,8.381a2.026,2.026,0,0,1-2.124-2.04,2.4,2.4,0,0,1,1.284-2.144c.468.547.889,1.054,1.524,1.81.467.521.923,1.036,1.43,1.605A3.2,3.2,0,0,1,76.864,102.1Z" fill="#221815"/>
    <path id="Path_136" data-name="Path 136" d="M93.123,100.02c-.331-1.106-.848-1.6-1.653-1.764A2.5,2.5,0,0,0,93.85,95.9c0-1.55-1.257-2.459-3.395-2.459H86.586V94l1.3.149c.025,1.207.03,2.419.03,3.622v.7c0,1.224-.005,2.432-.03,3.621l-1.3.15v.558H90.5v-.558l-1.3-.151c-.024-1.166-.026-2.354-.026-3.62h.7c1.159,0,1.676.195,1.956,1.326l.572,2.277c.168.642.545.866,1.411.866a3.216,3.216,0,0,0,1.006-.14v-.558l-1.072-.125Zm-3.952-2.179c0-1.372,0-2.556.027-3.758h1.243c1.453,0,2.082.643,2.082,1.816,0,1.131-.727,1.942-2.236,1.942Z" fill="#221815"/>
    <path id="Path_137" data-name="Path 137" d="M101.421,98.189l.042-1.954-.14-.141-1.984.182v.489l1,.216-.038,4.094a2.989,2.989,0,0,1-2,.928c-.769,0-1.132-.433-1.132-1.676V98.189l.07-1.954-.14-.141-2.011.182v.489l1,.216-.039,3.486c-.014,1.843.684,2.514,1.8,2.514a3.219,3.219,0,0,0,2.483-1.314h.008l.148,1.244,1.886-.111v-.49l-.963-.207Z" fill="#221815"/>
    <path id="Path_138" data-name="Path 138" d="M109.76,96.136,109.55,96l-1.587.541A2.714,2.714,0,0,0,106.226,96a2.263,2.263,0,0,0-2.515,2.291,2.087,2.087,0,0,0,1.073,1.968c-.688.654-.933,1.112-.933,1.538a1.068,1.068,0,0,0,.924,1.062c-1.046.515-1.385.988-1.385,1.591,0,1.007.88,1.7,2.891,1.7,2.263,0,3.408-1.2,3.408-2.4,0-1.131-.712-1.788-2.206-1.788h-1.844c-.656,0-.81-.251-.81-.628a1.375,1.375,0,0,1,.367-.9,3.305,3.305,0,0,0,1.015.149,2.258,2.258,0,0,0,2.5-2.29A2.356,2.356,0,0,0,108.366,97h1.394Zm-2.487,6.845c1.02,0,1.411.475,1.411,1.1,0,.8-.824,1.439-2.36,1.439-1.09,0-1.8-.363-1.8-1.285a1.829,1.829,0,0,1,.574-1.283c.17.015.351.026.529.026Zm-1.1-2.961c-.866,0-1.369-.7-1.369-1.718s.544-1.747,1.439-1.747,1.382.7,1.382,1.691C107.622,99.28,107.078,100.02,106.17,100.02Z" fill="#221815"/>
    <path id="Path_139" data-name="Path 139" d="M47.481,110.543v.489l1.117.126c.028.558.043.992.043,1.76v2.151a13.129,13.129,0,0,1-.308,3.855,1.087,1.087,0,0,1-.234.37l-.324-.23a1.74,1.74,0,0,0-1.034-.405.78.78,0,0,0-.81.545c0,.363.377.8,1.215.8a2.129,2.129,0,0,0,1.732-.783c.74-.8.824-1.829.824-4.148v-3.338l.042-1.886-.21-.14Z" fill="#221815"/>
    <path id="Path_140" data-name="Path 140" d="M49.186,106.367a.88.88,0,1,0,.921.879A.87.87,0,0,0,49.186,106.367Z" fill="#221815"/>
    <path id="Path_141" data-name="Path 141" d="M57.036,112.373a2.494,2.494,0,0,0-2.584-2.668,3.3,3.3,0,0,0-3.185,3.562c0,2.124,1.215,3.422,3.087,3.422a2.837,2.837,0,0,0,2.668-1.62l-.322-.251a2.419,2.419,0,0,1-1.955.991c-1.379,0-2.262-.927-2.287-2.654h4.48A2.845,2.845,0,0,0,57.036,112.373Zm-1.928.2h-2.62c.166-1.605,1.083-2.235,1.894-2.235a1.549,1.549,0,0,1,1.55,1.522C55.932,112.247,55.779,112.569,55.108,112.569Z" fill="#221815"/>
    <path id="Path_142" data-name="Path 142" d="M66.673,109.887H65.4v.531l1.049.191-1.317,4.29-1.624-4.29,1.067-.191v-.531H61.505v.531l1.057.171-1.582,4.324-1.47-4.322,1.1-.173v-.531H57.455v.531l.809.14,2.25,6.034H61l1.853-4.974c.314.961.765,2.24,1.834,4.974h.489l2.035-5.993.745-.181v-.531H66.673Z" fill="#221815"/>
    <path id="Path_143" data-name="Path 143" d="M74.231,112.373a2.494,2.494,0,0,0-2.584-2.668,3.3,3.3,0,0,0-3.185,3.562c0,2.124,1.216,3.422,3.087,3.422a2.836,2.836,0,0,0,2.668-1.62l-.321-.251a2.421,2.421,0,0,1-1.956.991c-1.378,0-2.262-.927-2.286-2.654h4.48A2.85,2.85,0,0,0,74.231,112.373Zm-1.928.2H69.684c.166-1.605,1.083-2.235,1.893-2.235a1.549,1.549,0,0,1,1.55,1.522C73.127,112.247,72.974,112.569,72.3,112.569Z" fill="#221815"/>
    <path id="Path_144" data-name="Path 144" d="M77.275,113.574v-5.307l.057-1.984-.2-.112L75,106.8v.489l1.159.14v6.146c0,.748-.016,1.5-.032,2.245l-1.127.2v.489h3.436v-.489l-1.127-.2C77.291,115.071,77.275,114.322,77.275,113.574Z" fill="#221815"/>
    <path id="Path_145" data-name="Path 145" d="M83.561,109.705c-.766,0-1.551.682-2.018,1.82l-.161-1.681-.209-.139-1.9.838v.49l1.117.125c.028.559.042.991.042,1.76v.657c0,.628-.007,1.554-.022,2.257l-1.025.187v.489h3.352v-.489l-1.166-.212c-.014-.7-.021-1.612-.021-2.232v-1.033a3.484,3.484,0,0,1,1.178-1.828l.176.151a1.277,1.277,0,0,0,.838.335c.56,0,.811-.363.811-1.02A1.2,1.2,0,0,0,83.561,109.705Z" fill="#221815"/>
    <path id="Path_146" data-name="Path 146" d="M91.091,109.887H89.61v.489l1.24.175-1.74,4.8-1.775-4.816,1.255-.146v-.5H85.266v.489l.773.118,2.53,6.37-.062.175a4.677,4.677,0,0,1-1.291,2.033l-.064-.064a1.366,1.366,0,0,0-1.02-.517.885.885,0,0,0-.922.587c0,.545.587.922,1.271.922,1.145,0,1.928-1.062,2.877-3.576l2.239-5.887.751-.161v-.489H91.091Z" fill="#221815"/>
    <path id="Path_147" data-name="Path 147" d="M63.321,83.048H92.9v-30.3L74.92,32.783H45.508L45.888,64ZM74.645,33.4l17.634,19.58V82.43H63.594L46.5,63.757,46.134,33.4Z" fill="#221815"/>
    <path id="Path_148" data-name="Path 148" d="M67.786,60.168V78.411h2.668V60.168l.619-.618h13.9l.618.618v5.3l-.618.618h-7.32v2.858l6.993,9.47h3.312l-6.342-8.677.5-.983h6.142V56.882H71.073l-.619-.618v-3.73H67.786v3.73l-.618.618H53.517l-.618-.618V40.706l.618-.618h13.65l.618.618v3.73h2.668V37.42H50.231V59.55H67.168Z" fill="#221815"/>
    <path id="Path_149" data-name="Path 149" d="M61.991,85.831H95.72V51.387L76.334,30H42.763l.384,35.359Zm13.8-54.594,18.7,20.628V84.594H62.533L44.379,64.871l-.365-33.634Z" fill="#221815"/>
  </g>
</svg>
