<svg xmlns="http://www.w3.org/2000/svg" width="291.348" height="50" viewBox="0 0 291.348 50">
  <g id="Group_29" data-name="Group 29" transform="translate(-2578.326 -12195)">
    <path id="Path_21" data-name="Path 21" d="M2587.982,12219.78v1.6c.053,3.467.823,4.45,3.6,4.45h.874v1.4h-14.126v-1.4h.358c2.777,0,3.547-.983,3.6-4.45V12200.9c-.05-3.467-.82-4.448-3.6-4.448h-.358V12195h24.45v6.516h-1.488c-.258-3.465-1.081-4.136-5.243-4.136h-8.063v11.434H2596c3.182,0,3.851-.518,4.159-3.312h1.489v9.52h-1.489c-.358-3.21-1.078-3.884-4.366-3.884h-7.809v8.643" fill="#45484b"/>
    <path id="Path_22" data-name="Path 22" d="M2614.155,12215.815l-3.79-10-3.711,10h7.5m-16.139,10.35c2.616-.04,3.047-.435,4.218-3.621l7.073-19.441-.311-.906h4.336l7.662,20.429c1.094,2.99,1.683,3.54,3.556,3.54h.432v1.063h-11.61v-1.062h.666c2.463,0,3.282-.354,3.282-1.494a7.027,7.027,0,0,0-.545-1.968l-1.877-4.959h-8.95l-1.913,5.233a5.666,5.666,0,0,0-.392,1.693c0,1.1.86,1.494,3.165,1.494h.743v1.063h-9.535Z" fill="#45484b"/>
    <path id="Path_23" data-name="Path 23" d="M2632.57,12215.972a7.571,7.571,0,0,0,.9.037c2.385,0,3.908-.351,5-1.1a5.942,5.942,0,0,0,2.268-5.156,6.054,6.054,0,0,0-2.228-5.117,7.278,7.278,0,0,0-4.457-1.061,8.135,8.135,0,0,0-1.482.077v12.319m21.924,11.26c-3.907,0-4.847-.119-6.724-.79-1.954-.667-2.891-.906-5.467-3.543l-2.075-2.087a30.673,30.673,0,0,0-4.219-3.778c-.976.079-1.408.121-1.957.121h-1.482v5.627c.04,2.636.622,3.384,2.734,3.384h1.214v1.063h-12v-1.063h.977c2.071,0,2.7-.748,2.7-3.384l.033-1.221v-14.128c0-3.189-.388-3.544-3.67-3.624v-1.1c2.5-.157,6.956-.275,9.455-.275,4.965,0,7.27.552,9.264,2.2a6.123,6.123,0,0,1,2.229,4.565c0,3.149-1.563,5.235-4.925,6.654a34.495,34.495,0,0,1,2.934,2.715l2.539,2.557a19.753,19.753,0,0,0,5.939,4.419,7.283,7.283,0,0,0,3.439.619v1.066Z" fill="#45484b"/>
    <path id="Path_24" data-name="Path 24" d="M2685.456,12222.938a9.322,9.322,0,0,0,7.541,3.66c5.2,0,8.869-4.566,8.869-11.06,0-7.083-4.1-12.161-9.846-12.161-5.51,0-9.224,4.369-9.224,10.9,0,3.739.823,6.377,2.66,8.66m6.6-20.858c8.833,0,14.537,4.956,14.537,12.671,0,7.359-6.213,13.107-14.226,13.107-8.441,0-14.3-5.038-14.3-12.4,0-7.557,6.1-13.381,13.992-13.381" fill="#45484b"/>
    <path id="Path_25" data-name="Path 25" d="M2728.277,12205.858a3.993,3.993,0,0,0,.432-1.3c0-.592-.391-.75-1.679-.75h-1.449c-1.369,0-1.717.119-1.717.669a4.957,4.957,0,0,0,.583,1.771l1.836,3.781,1.994-4.171M2708,12207.2c-1.328-2.912-1.911-3.345-4.376-3.387h-.509v-1.1h11.295v1.1h-.508c-1.486.042-2.031.394-2.031,1.3,0,.67.311,1.573,1.288,3.66l6.8,14.523,4.105-8.54-3.553-7.6c-1.452-3.03-1.8-3.347-3.79-3.347h-.629v-1.1h18.327v1.1c-2.7.042-3.124.355-4.573,3.268l-2.5,5.154,5.239,10.943,6.758-16.255a7.451,7.451,0,0,0,.623-1.89c0-.9-.74-1.219-2.888-1.221v-1.1h8.482v1.1l-.71.04c-1.95.117-2.418.627-3.867,4.171l-8.2,19.837h-2.5l-5.122-10.862-5.2,10.862h-2.419Z" fill="#45484b"/>
    <path id="Path_26" data-name="Path 26" d="M2756.662,12207.138a3.071,3.071,0,0,0-2.847-3.332,2.587,2.587,0,0,0-2.643,2.656c0,1.605.626,2.577,3.145,4.771a5.178,5.178,0,0,0,2.345-4.1m-2.014,9.37a21.7,21.7,0,0,0-3.058-2.575c-2.512,1.6-3.767,3.669-3.767,6.16a5.238,5.238,0,0,0,5.276,5.147,9.15,9.15,0,0,0,6.116-3.08,24.869,24.869,0,0,0-4.567-5.652m16.843,9.112c-2.429,1.6-4.062,2.238-5.822,2.238-2.472,0-3.854-1.06-5.53-4.136l-.295-.507c-3.182,3.122-6.156,4.643-9.174,4.643a7,7,0,0,1-7.079-7.05c0-3.46,2.218-5.779,7.2-7.679a7.141,7.141,0,0,1-3.142-5.485c0-3.08,2.516-4.978,6.665-4.978,3.516,0,5.738,1.519,5.738,3.926,0,2.108-1.382,3.627-4.861,5.356a20.638,20.638,0,0,1,4.316,3.923,23.992,23.992,0,0,1,2.556,3.292,49,49,0,0,0,4.1-6.2,4.252,4.252,0,0,0,.545-1.559c0-.593-.5-.765-2.472-.846v-1.1h8.421v1.1a7.861,7.861,0,0,0-3.433.422c-.545.3-.883.717-1.719,2.151a58.151,58.151,0,0,1-4.862,7,14.909,14.909,0,0,1,1.051,1.605l.709,1.3c1.425,2.535,1.971,3.08,3.229,3.08a6.235,6.235,0,0,0,3.349-1.348Z" fill="#45484b"/>
    <path id="Path_27" data-name="Path 27" d="M2817.578,12216.461l-3.791-10-3.71,10h7.5m-16.14,10.353c2.616-.041,3.048-.435,4.219-3.62l7.073-19.442-.311-.909h4.336l7.661,20.428c1.094,2.992,1.68,3.544,3.557,3.544h.428v1.063h-11.606v-1.063h.662c2.466,0,3.283-.354,3.283-1.5a6.876,6.876,0,0,0-.542-1.968l-1.881-4.96h-8.946l-1.914,5.236a5.583,5.583,0,0,0-.391,1.691c0,1.1.863,1.5,3.165,1.5h.742v1.063h-9.535Z" fill="#45484b"/>
    <path id="Path_28" data-name="Path 28" d="M2827.645,12227.875v-1.064h1.054c2.074,0,2.7-.745,2.7-3.383l.04-1.221v-13.146l-.04-1.22c0-2.676-.623-3.385-2.7-3.385h-1.054v-1.1h12.817v1.1h-.9c-3.359,0-3.79.354-3.79,3.109v15.94l.04,1.1c0,1.221.391,1.494,2.071,1.494h4.025c2.7,0,3.242-.194,4.379-1.494a25.169,25.169,0,0,0,2.108-2.676h1.174l-3.011,5.942h-18.913" fill="#45484b"/>
    <path id="Path_29" data-name="Path 29" d="M2847.753,12227.875v-1.064h1.05c2.071,0,2.7-.745,2.7-3.383l.04-1.221v-13.146l-.04-1.22c0-2.676-.626-3.385-2.7-3.385h-1.05v-1.1h12.81v1.1h-.9c-3.363,0-3.791.354-3.791,3.109v15.94l.04,1.1c0,1.221.388,1.494,2.068,1.494h4.028c2.7,0,3.242-.194,4.376-1.494a24.76,24.76,0,0,0,2.108-2.676h1.178l-3.011,5.942h-18.91" fill="#45484b"/>
    <path id="Path_30" data-name="Path 30" d="M2785.476,12219.235c0,5.435,1.027,6.777,5.139,6.777,4.67,0,7.6-2.948,7.6-7.708,0-5.121-3.442-7.864-9.916-7.864h-2.824v8.795m2.931-10.19c5.851,0,8.213-1.654,8.213-5.743,0-4.294-2.77-6.568-8.013-6.568a21.378,21.378,0,0,0-3.131.206v12.105Zm-14.233-13.138c3.546-.313,4.935-.363,8.22-.52,2.259-.05,4.162-.1,5.752-.1,4.727,0,7.45.362,9.913,1.294a6.518,6.518,0,0,1,4.624,6.311c0,3.312-2.312,5.795-6.163,6.571v.1c5.032,1.4,7.963,4.554,7.963,8.433a8.987,8.987,0,0,1-5.036,8.278c-2.569,1.241-4.52,1.6-8.886,1.6H2773.2v-1.4h1.847c3.6,0,4.728-.827,4.728-3.565v-19.658c0-5.328-.516-5.95-4.621-5.95h-.98Z" fill="#45484b"/>
    <path id="Path_31" data-name="Path 31" d="M2660.386,12215.972a7.613,7.613,0,0,0,.9.037c2.382,0,3.908-.351,5-1.1a5.939,5.939,0,0,0,2.265-5.156,6.053,6.053,0,0,0-2.225-5.117,7.279,7.279,0,0,0-4.456-1.061,8.177,8.177,0,0,0-1.486.077v12.319m21.925,11.26c-3.908,0-4.845-.119-6.725-.79-1.951-.667-2.887-.906-5.467-3.543l-2.071-2.087a30.978,30.978,0,0,0-4.222-3.778c-.977.079-1.409.121-1.954.121,0,0-1.115-1.406-1.486,0s0,5.627,0,5.627c.037,2.636.626,3.384,2.737,3.384h1.211v1.063h-12v-1.063h.977c2.071,0,2.7-.748,2.7-3.384l.04-1.221v-14.128c0-3.189-.394-3.544-3.673-3.624v-1.1c2.5-.157,6.955-.275,9.455-.275,4.961,0,7.27.552,9.261,2.2a6.118,6.118,0,0,1,2.231,4.565c0,3.149-1.562,5.235-4.925,6.654a34.711,34.711,0,0,1,2.931,2.715l2.536,2.557a19.778,19.778,0,0,0,5.945,4.419,7.276,7.276,0,0,0,3.44.619v1.066Z" fill="#45484b"/>
    <path id="Path_32" data-name="Path 32" d="M2866.753,12205.927c.642,0,.88-.142.88-.519s-.211-.491-.833-.491h-.505v1.01h.458m.345-1.288c.585,0,.94.278.94.739,0,.315-.171.678-.756.777.374.229.445.276.863,1.272h-.418c-.5-1.094-.643-1.223-1.272-1.223h-.16v1.223h-.342v-2.789Zm-2.386,1.365a2.3,2.3,0,1,0,2.3-2.317,2.312,2.312,0,0,0-2.3,2.317m4.938,0a2.636,2.636,0,1,1-2.636-2.653,2.646,2.646,0,0,1,2.636,2.653" fill="#45484b"/>
    <path id="Path_33" data-name="Path 33" d="M2620.3,12244.8a.943.943,0,0,0-.432-.089c-.572,0-1.449.291-2.529.291-2.958,0-4.557-1.727-4.557-4,0-2.158,1.445-4.3,4.661-4.3a15.32,15.32,0,0,1,2.73.418.287.287,0,0,0,.227-.089h.318l.063,2.1h-.381a2.894,2.894,0,0,0-2.907-2.021c-1.907,0-3.175,1.423-3.175,3.568,0,2.225,1.458,3.876,3.4,3.876a3.52,3.52,0,0,0,3.061-1.867h.382Z" fill="#45484b"/>
    <path id="Path_34" data-name="Path 34" d="M2625.082,12243.4c0,.956.124,1.134,1.135,1.1v.3h-3.4v-.3c.93.033,1.031-.222,1.031-.957v-4.455c0-.722-.121-.9-1.031-.9v-.3c.255,0,.82-.045,1.586-.078.589-.021,1.134-.021,1.359-.021,2.244,0,3.011.978,3.011,1.989a1.92,1.92,0,0,1-1.4,1.812,9.888,9.888,0,0,1,.83.767l.723.722a4.341,4.341,0,0,0,2.669,1.534v.312c-2.191.055-2.736-.333-3.737-1.334l-.588-.589a8.61,8.61,0,0,0-1.2-1.065,6.213,6.213,0,0,1-.991,0Zm0-1.778c.077.01.291.034.355.034,1.479-.067,1.991-.636,1.991-1.768a1.619,1.619,0,0,0-1.814-1.79,3.412,3.412,0,0,0-.532.045Z" fill="#45484b"/>
    <path id="Path_35" data-name="Path 35" d="M2632.921,12244.5c.746-.01.89-.132,1.2-1l2.014-5.512-.091-.28h1.245l2.168,5.792c.321.866.431,1,1.134,1v.3h-3.3v-.3c.88,0,1.124-.087,1.124-.41a1.836,1.836,0,0,0-.157-.588l-.532-1.379h-2.546l-.546,1.477a1.45,1.45,0,0,0-.11.47c0,.32.224.466,1.111.431v.3h-2.714Zm4.594-2.932-1.067-2.812-1.057,2.813Z" fill="#45484b"/>
    <path id="Path_36" data-name="Path 36" d="M2644.3,12243.431c0,.878.134,1.065.967,1.065v.3h-3.058v-.3c.713,0,.857-.276.857-.865V12239c0-.611-.221-.811-.857-.811v-.3h5.293v1.391h-.3c-.057-.745-.258-.89-1.154-.89H2644.3v2.456h1.747c.675,0,.829-.112.9-.711h.3v2.046h-.3c-.077-.688-.241-.835-.953-.835h-1.69Z" fill="#45484b"/>
    <path id="Path_37" data-name="Path 37" d="M2649.352,12237.7h.3a.245.245,0,0,0,.178.155,2.754,2.754,0,0,0,.545.032h4.7c.565,0,.655-.021.722-.187h.3l.2,1.911h-.321c-.158-1.156-.378-1.223-1.044-1.223h-1.589v5.235c0,.756.12.878,1.288.878v.3h-3.811v-.3c1.111,0,1.288-.146,1.288-.878v-5.235h-1.589c-.656,0-.877.066-1.044,1.223h-.325Z" fill="#45484b"/>
    <path id="Path_38" data-name="Path 38" d="M2657.984,12242.976h.335a1.932,1.932,0,0,0,1.92,1.6,1.225,1.225,0,0,0,1.378-1.145c0-1.554-3.5-2.168-3.5-4.1,0-.957.843-1.625,2.034-1.625a4.055,4.055,0,0,1,.857.091,3.1,3.1,0,0,0,.588.088.348.348,0,0,0,.308-.134h.281l.244,1.724h-.334a1.983,1.983,0,0,0-1.813-1.411c-.71,0-1.088.423-1.088.91,0,1.491,3.513,1.935,3.513,4.079,0,1.146-.967,1.924-2.389,1.924a10.108,10.108,0,0,1-1.492-.2.349.349,0,0,0-.3.122h-.267Z" fill="#45484b"/>
    <path id="Path_39" data-name="Path 39" d="M2664.18,12244.5c.69,0,.89-.12.957-1.087l.268-4.09c.067-.99-.054-1.135-.7-1.135v-.3h2.054l2.4,5.146,2.269-5.146h2.054v.3c-.623,0-.756.135-.71.646l.4,5.057c.043.568.254.609.91.609v.3h-3.155v-.3c.91,0,1.067-.22.977-1.4l-.3-4.1h-.02l-2.569,5.8h-.375l-2.613-5.659H2666l-.268,4.113c-.077,1.19.181,1.19.913,1.243v.3h-2.469Z" fill="#45484b"/>
    <path id="Path_40" data-name="Path 40" d="M2675.613,12244.8v-.3c.9,0,1.121-.145,1.121-.766v-4.789c0-.735-.365-.756-1.121-.756v-.3h5.677l.1,1.669h-.3l-.057-.233c-.224-.912-.4-.935-1.111-.935h-1.957v2.59h1.723c.646,0,.766-.076.833-.845h.3v2.234h-.3c-.077-.79-.221-.89-.833-.89h-1.723v2.023c0,.688.09.8.656.8h1.234c1.124,0,1.345-.155,1.646-1.244h.3l-.167,1.745Z" fill="#45484b"/>
    <path id="Path_41" data-name="Path 41" d="M2684.833,12239.14v4.27c0,.867.111,1.144,1.111,1.087v.3h-2.656v-.3c.8.026.933-.232.933-.955v-5a1.4,1.4,0,0,0-.933-.356v-.3h2.014l4.955,5.235v-3.98c0-.833-.134-.965-1.1-.955v-.3h2.69v.3c-.746,0-.977.135-.977.979v5.7h-.6Z" fill="#45484b"/>
    <path id="Path_42" data-name="Path 42" d="M2697.728,12237.885h3.1v.3c-.742,0-.957.165-.957.955v4.324c0,.833.158,1.059.957,1.032v.3h-3.1v-.3c.876.026.913-.319.913-.955v-4.522c0-.6-.144-.844-.913-.834Z" fill="#45484b"/>
    <path id="Path_43" data-name="Path 43" d="M2704.038,12239.14v4.27c0,.867.114,1.144,1.114,1.087v.3H2702.5v-.3c.8.026.934-.232.934-.955v-5a1.409,1.409,0,0,0-.934-.356v-.3h2.011l4.955,5.235v-3.98c0-.833-.134-.965-1.1-.955v-.3h2.69v.3c-.746,0-.981.135-.981.979v5.7h-.6Z" fill="#45484b"/>
    <path id="Path_44" data-name="Path 44" d="M2717,12244.456c.88-.04,1.067-.216,1.067-1.346v-4.522c0-1.232-.214-1.347-1.218-1.347v-.343c.369,0,1-.025,1.309-.038.609-.025,1.448-.062,1.689-.062,2.4,0,3.7.544,3.7,2.285,0,1.485-1.234,2.514-3.024,2.514a5.871,5.871,0,0,1-1.041-.088v1.739c0,.979.254,1.2,1.436,1.208v.343H2717Zm2.479-3.329a3.326,3.326,0,0,0,.546.064,1.977,1.977,0,0,0,1.98-2.134,1.737,1.737,0,0,0-1.9-1.9,4.533,4.533,0,0,0-.623.037Z" fill="#45484b"/>
    <path id="Path_45" data-name="Path 45" d="M2724.129,12244.5c.742-.01.886-.132,1.2-1l2.011-5.512-.091-.28h1.245l2.168,5.792c.321.866.435,1,1.134,1v.3h-3.3v-.3c.88,0,1.124-.087,1.124-.41a1.921,1.921,0,0,0-.157-.588l-.532-1.379h-2.546l-.546,1.477a1.455,1.455,0,0,0-.11.47c0,.32.221.466,1.114.431v.3h-2.713Zm4.59-2.932-1.067-2.812-1.057,2.813Z" fill="#45484b"/>
    <path id="Path_46" data-name="Path 46" d="M2733.393,12237.885h3.1v.3c-.747,0-.957.165-.957.955v4.324c0,.833.154,1.059.957,1.032v.3h-3.1v-.3c.877.026.91-.319.91-.955v-4.522c0-.6-.144-.844-.91-.834Z" fill="#45484b"/>
    <path id="Path_47" data-name="Path 47" d="M2739.7,12239.14v4.27c0,.867.111,1.144,1.111,1.087v.3h-2.657v-.3c.8.026.934-.232.934-.955v-5a1.4,1.4,0,0,0-.934-.356v-.3h2.011l4.958,5.235v-3.98c0-.833-.13-.965-1.1-.955v-.3h2.69v.3c-.746,0-.977.135-.977.979v5.7h-.6Z" fill="#45484b"/>
    <path id="Path_48" data-name="Path 48" d="M2748.466,12237.7h.3a.243.243,0,0,0,.177.155,2.754,2.754,0,0,0,.545.032h4.7c.565,0,.656-.021.723-.187h.3l.2,1.911h-.321c-.154-1.156-.378-1.223-1.044-1.223h-1.589v5.235c0,.756.12.878,1.288.878v.3h-3.811v-.3c1.111,0,1.288-.146,1.288-.878v-5.235h-1.589c-.656,0-.88.066-1.044,1.223h-.324Z" fill="#45484b"/>
    <path id="Path_49" data-name="Path 49" d="M2761,12244.5c.746-.01.89-.132,1.205-1l2.01-5.512-.09-.28h1.245l2.168,5.792c.321.866.435,1,1.134,1v.3h-3.3v-.3c.876,0,1.124-.087,1.124-.41a1.929,1.929,0,0,0-.157-.588l-.536-1.379h-2.543l-.545,1.477a1.457,1.457,0,0,0-.11.47c0,.32.221.466,1.111.431v.3H2761Zm4.591-2.932-1.068-2.812-1.054,2.813Z" fill="#45484b"/>
    <path id="Path_50" data-name="Path 50" d="M2771.772,12239.14v4.27c0,.867.11,1.144,1.114,1.087v.3h-2.66v-.3c.8.026.937-.232.937-.955v-5a1.417,1.417,0,0,0-.937-.356v-.3h2.014l4.955,5.235v-3.98c0-.833-.134-.965-1.1-.955v-.3h2.69v.3c-.742,0-.977.135-.977.979v5.7h-.6Z" fill="#45484b"/>
    <path id="Path_51" data-name="Path 51" d="M2781.468,12239.163c0-.813-.208-.988-1.054-.979v-.3c.321,0,1.278-.045,1.746-.066.6-.021,1.168-.021,1.586-.021,1.679,0,2.891.3,3.567.978a3.247,3.247,0,0,1,.956,2.366c0,1.635-1.14,3.658-4.4,3.658h-3.456v-.3c.943,0,1.054-.153,1.054-.9Zm1.234,4.523c0,.7.1.8.823.8a3.239,3.239,0,0,0,2.533-.8,3.321,3.321,0,0,0,.866-2.389,2.933,2.933,0,0,0-3.409-3.189c-.187,0-.535,0-.813.021Z" fill="#45484b"/>
    <path id="Path_52" data-name="Path 52" d="M2794.536,12244.456c.876-.04,1.067-.216,1.067-1.346v-4.522c0-1.232-.217-1.347-1.221-1.347v-.343c.368,0,1-.025,1.308-.038.612-.025,1.449-.062,1.69-.062,2.4,0,3.7.544,3.7,2.285,0,1.485-1.231,2.514-3.021,2.514a5.865,5.865,0,0,1-1.044-.088v1.739c0,.979.254,1.2,1.435,1.208v.343h-3.911Zm2.476-3.329a3.314,3.314,0,0,0,.545.064,1.978,1.978,0,0,0,1.981-2.134,1.736,1.736,0,0,0-1.9-1.9,4.55,4.55,0,0,0-.622.037Z" fill="#45484b"/>
    <path id="Path_53" data-name="Path 53" d="M2801.662,12244.5c.746-.01.89-.132,1.2-1l2.011-5.512-.087-.28h1.245l2.164,5.792c.325.866.435,1,1.135,1v.3h-3.3v-.3c.876,0,1.121-.087,1.121-.41a1.9,1.9,0,0,0-.154-.588l-.536-1.379h-2.546l-.542,1.477a1.488,1.488,0,0,0-.114.47c0,.32.225.466,1.115.431v.3h-2.714Zm4.591-2.932-1.068-2.812-1.054,2.813Z" fill="#45484b"/>
    <path id="Path_54" data-name="Path 54" d="M2810.9,12244.5c.77-.033.937-.189.937-1.179v-3.955c0-1.079-.191-1.18-1.067-1.18v-.3c.321,0,.876-.021,1.144-.033.532-.023,1.268-.055,1.479-.055,2.1,0,3.232.477,3.232,2,0,1.3-1.078,2.2-2.644,2.2a5.361,5.361,0,0,1-.913-.079v1.523c0,.854.221,1.043,1.258,1.055v.3H2810.9Zm2.168-2.912a3.029,3.029,0,0,0,.479.057,1.731,1.731,0,0,0,1.733-1.87,1.523,1.523,0,0,0-1.666-1.666,4,4,0,0,0-.546.034Z" fill="#45484b"/>
    <path id="Path_55" data-name="Path 55" d="M2817.835,12244.8v-.3c.9,0,1.125-.145,1.125-.766v-4.789c0-.735-.368-.756-1.125-.756v-.3h5.682l.1,1.669h-.3l-.057-.233c-.221-.912-.4-.935-1.111-.935h-1.957v2.59h1.723c.646,0,.769-.076.836-.845h.3v2.234h-.3c-.077-.79-.221-.89-.836-.89h-1.723v2.023c0,.688.09.8.659.8h1.231c1.124,0,1.345-.155,1.646-1.244h.3l-.167,1.745Z" fill="#45484b"/>
    <path id="Path_56" data-name="Path 56" d="M2827.745,12243.4c0,.956.124,1.134,1.135,1.1v.3h-3.4v-.3c.933.033,1.037-.222,1.037-.957v-4.455c0-.722-.124-.9-1.037-.9v-.3c.258,0,.823-.045,1.593-.078.585-.021,1.13-.021,1.355-.021,2.244,0,3.011.978,3.011,1.989a1.92,1.92,0,0,1-1.4,1.812,9.784,9.784,0,0,1,.836.767l.72.722a4.348,4.348,0,0,0,2.669,1.534v.312c-2.188.055-2.733-.333-3.737-1.334l-.585-.589a8.81,8.81,0,0,0-1.2-1.065,6.212,6.212,0,0,1-.991,0Zm0-1.778c.077.01.288.034.355.034,1.479-.067,1.991-.636,1.991-1.768a1.618,1.618,0,0,0-1.81-1.79,3.421,3.421,0,0,0-.536.045Z" fill="#45484b"/>
  </g>
</svg>
