<svg xmlns="http://www.w3.org/2000/svg" width="83" height="45.114" viewBox="0 0 83 45.114">
  <g id="グループ_181" data-name="グループ 181" transform="translate(-1018 -1734)">
    <path id="パス_250" data-name="パス 250" d="M104.952,0c.133.337.263.675.4,1.011q5.175,12.778,10.352,25.555a7.408,7.408,0,0,0,1.338,2.212,6.832,6.832,0,0,0,1.826,1.411c.246.135.5.254.75.384a.171.171,0,0,0,.194,0,8.2,8.2,0,0,0,1.431-1.1,4.326,4.326,0,0,0,1.241-2.6,8.867,8.867,0,0,0,.061-1.051q.005-9.539,0-19.078a3.337,3.337,0,0,0-.308-1.429,5.553,5.553,0,0,0-1.726-2.136,2.516,2.516,0,0,0-.771-.409c-.072-.022-.139-.047-.077-.159h.183q6.385,0,12.771,0a9.065,9.065,0,0,1,4.012.869,7.1,7.1,0,0,1,2.945,2.533,5.6,5.6,0,0,1,.923,3.571,5.23,5.23,0,0,1-1.166,2.887,7.313,7.313,0,0,1-2.424,1.936,10.025,10.025,0,0,1-1.893.736.54.54,0,0,0-.17.071c.128.024.256.046.384.071a9.463,9.463,0,0,1,5.2,2.791,6.819,6.819,0,0,1,1.887,3.81,7.118,7.118,0,0,1-3.22,7.31,8.885,8.885,0,0,1-3.446,1.376,10.726,10.726,0,0,1-1.991.175q-13.1,0-26.193,0h-.221c-.035-.083-.019-.123.059-.139a1.881,1.881,0,0,0,1.284-1.008,3.493,3.493,0,0,0,.231-3.095c-.661-1.676-1.339-3.346-2.009-5.018-.024-.06-.049-.119-.076-.186H99.289c-.031.089-.063.176-.092.265q-.747,2.331-1.493,4.662a4.641,4.641,0,0,0-.232,1.713,3.01,3.01,0,0,0,.873,2.051,2.679,2.679,0,0,0,.928.588c.068.026.158.042.107.158H92.224c-.024-.079,0-.115.071-.138a6.151,6.151,0,0,0,3.2-2.562A10.071,10.071,0,0,0,96.8,25.289q1.946-6.083,3.9-12.163Q102.8,6.573,104.879.017c0-.006,0-.011,0-.017Zm23.78,29.616c.059,0,.1.006.139.006.673,0,1.347,0,2.019,0a4.178,4.178,0,0,0,2.515-.851,5.65,5.65,0,0,0,1.586-1.9,9.014,9.014,0,0,0,1.048-3.774,8.416,8.416,0,0,0-.418-3.2,6.7,6.7,0,0,0-1.653-2.739,4.461,4.461,0,0,0-3.283-1.35c-.585.008-1.171,0-1.756,0h-.2Zm.007-14.9c.059,0,.111.008.162.008.779,0,1.558,0,2.336,0a3.308,3.308,0,0,0,2.66-1.274,5.024,5.024,0,0,0,.955-1.976,8.528,8.528,0,0,0,.22-2.823,8.1,8.1,0,0,0-.5-2.271,5.155,5.155,0,0,0-1.08-1.772,3.067,3.067,0,0,0-2.317-.994c-.75.006-1.5,0-2.249,0-.062,0-.123,0-.183.006ZM99.613,20.276h6.742q-1.871-4.593-3.729-9.147l-.04,0-2.973,9.142" transform="translate(952.785 1734)" fill="#1a1311"/>
    <path id="パス_251" data-name="パス 251" d="M0,117.35c.07,0,.141,0,.211,0H82.964a4.478,4.478,0,0,1,.012,1.024c-.042,0-.087.007-.132.008s-.105,0-.158,0H.28c-.093,0-.187-.006-.28-.01Z" transform="translate(1018 1650.985)" fill="#1a1311"/>
    <path id="パス_252" data-name="パス 252" d="M27.771,8.95H39.809c.032.065.028.111-.035.138-.043.018-.088.033-.13.052a4.385,4.385,0,0,0-2.637,3.182,3.7,3.7,0,0,0-.081.766c0,5.036-.015,10.072,0,15.107a10.672,10.672,0,0,1-1.053,4.613,8.705,8.705,0,0,1-5.932,4.859,9.839,9.839,0,0,1-3.463.313,9.187,9.187,0,0,1-7.212-4.257,8.034,8.034,0,0,1-1.161-2.731,6.537,6.537,0,0,1-.044-2.46,7.686,7.686,0,0,1,.552-1.917,4.29,4.29,0,0,1,1.147-1.6,3.154,3.154,0,0,1,3.346-.586,2.867,2.867,0,0,1,1.787,2.806,4.269,4.269,0,0,1-.333,1.34A8.87,8.87,0,0,1,23.088,31a7.75,7.75,0,0,0-.922,1.3,3.756,3.756,0,0,0-.44,1.251,2.184,2.184,0,0,0,.49,1.771,3.073,3.073,0,0,0,.75.657,6.29,6.29,0,0,0,3.559,1.018A3.77,3.77,0,0,0,29.9,34.977a5.336,5.336,0,0,0,.485-1.182,7.363,7.363,0,0,0,.278-1.923c.016-1.2.029-2.4.028-3.6q-.009-7.659-.028-15.318a3.174,3.174,0,0,0-.341-1.386,5.252,5.252,0,0,0-2.39-2.415c-.042-.021-.086-.038-.126-.062s-.041-.028-.031-.14" transform="translate(1005.293 1727.67)" fill="#1a1311"/>
    <path id="パス_253" data-name="パス 253" d="M148.258,133.756a5.89,5.89,0,0,1,2.114.331,3.209,3.209,0,0,1,1.229.792,2.626,2.626,0,0,1,.511,2.867,2.85,2.85,0,0,1-.918,1.089,4.372,4.372,0,0,1-1.708.745,6.733,6.733,0,0,1-3.282-.086,3.978,3.978,0,0,1-.976-.431,2.636,2.636,0,0,1-.221-4.369,4.449,4.449,0,0,1,1.747-.782,6.631,6.631,0,0,1,1.5-.155m-2.5,3.14a6.013,6.013,0,0,0,.069.626,1.983,1.983,0,0,0,1.53,1.629,2.858,2.858,0,0,0,1.011.068,2.16,2.16,0,0,0,1.839-1.254,2.963,2.963,0,0,0,.246-1.934,2.057,2.057,0,0,0-1.529-1.685,2.9,2.9,0,0,0-1.219-.053,2.025,2.025,0,0,0-1.751,1.444,4.32,4.32,0,0,0-.2,1.159" transform="translate(916.198 1639.372)" fill="#1a1311"/>
    <path id="パス_254" data-name="パス 254" d="M60.1,134.277h.851c.036.116.045,5.482.006,5.707a4.114,4.114,0,0,0-.465,0,.965.965,0,0,1-.784-.286c-1.435-1.241-2.886-2.463-4.382-3.631l-.135-.1a.158.158,0,0,0-.023.009s-.01.006-.012.011a.156.156,0,0,0,0,.035q0,1.95-.007,3.9c0,.005,0,.01-.011.026h-.853v-5.675c.055,0,.1-.01.146-.01.269,0,.539,0,.808,0a.319.319,0,0,1,.223.078q2.262,1.867,4.529,3.728c.026.021.054.04.113.082,0-.67,0-1.31,0-1.95v-1.922" transform="translate(979.609 1639.015)" fill="#1a1311"/>
    <path id="パス_255" data-name="パス 255" d="M243.614,134.894c-1.125-.015-2.253.045-3.4.083a3.26,3.26,0,0,0,.033-.336,3.408,3.408,0,0,0-.034-.34h5.7c.048.108-.02.17-.075.237-.435.529-.882,1.049-1.3,1.589-.787,1.012-1.558,2.036-2.335,3.055-.033.044-.059.094-.106.169a2.966,2.966,0,0,0,.495.014c.158,0,.316,0,.474-.006l.474-.006c.158,0,.316,0,.474-.009s.3-.014.456-.018.316-.006.474-.011.316-.017.474-.02.314,0,.466,0v.667h-6.111c-.053-.088-.006-.152.049-.217.267-.318.539-.633.8-.957q1.459-1.824,2.91-3.653c.052-.064.133-.125.081-.239" transform="translate(848.445 1638.987)" fill="#1a1311"/>
    <path id="パス_256" data-name="パス 256" d="M20.826,138.1l-.776,1.708H19.029l3.121-5.752H23l3.043,5.764H24.163c-.246-.565-.469-1.162-.779-1.72Zm1.341-2.438a18.78,18.78,0,0,0-1,1.914h1.958l-.962-1.914" transform="translate(1004.543 1639.16)" fill="#1a1311"/>
    <path id="パス_257" data-name="パス 257" d="M188.252,136.688c.437,0,.846.008,1.255,0s.815-.037,1.2-.056v.685c-.39-.019-.8-.047-1.211-.057s-.817,0-1.236,0v2.112a24.711,24.711,0,0,0,2.509-.107c-.013.124-.033.237-.033.35s.021.23.033.358h-4.14c-.035-.132-.045-5.4-.011-5.66h4.135v.686a1.625,1.625,0,0,1-.18,0,18.657,18.657,0,0,0-2.174-.1c-.041,0-.081,0-.146.007-.009.589,0,1.176,0,1.786" transform="translate(886.035 1638.982)" fill="#1a1311"/>
    <path id="パス_258" data-name="パス 258" d="M91.86,138.312c.031,0,.06-.008.088-.008s.057,0,.079.006.028.02.031.029a1.265,1.265,0,0,0,.912.8,2.019,2.019,0,0,0,1.21-.014,1.308,1.308,0,0,0,.412-.224.7.7,0,0,0,.04-1.056,1.5,1.5,0,0,0-.516-.327c-.276-.112-.557-.211-.836-.318-.207-.08-.416-.156-.617-.25a3.252,3.252,0,0,1-.456-.261,1.469,1.469,0,0,1-.183-2.265,2.1,2.1,0,0,1,.9-.519,4.228,4.228,0,0,1,2.606.079,2.032,2.032,0,0,1,.208.093.892.892,0,0,1,.1.063l-.338.806c-.155.028-.157.03-.229-.086a1.276,1.276,0,0,0-1.066-.612,1.892,1.892,0,0,0-.73.069,1.43,1.43,0,0,0-.331.156.653.653,0,0,0-.04,1.043,2.3,2.3,0,0,0,.449.27c.321.141.652.257.976.394a7.228,7.228,0,0,1,.746.347,2.469,2.469,0,0,1,.519.385,1.364,1.364,0,0,1,.162,1.754,1.974,1.974,0,0,1-.692.609,3.578,3.578,0,0,1-1.316.408,4.724,4.724,0,0,1-1.931-.133c-.162-.047-.318-.112-.484-.172l.325-1.067" transform="translate(953.266 1639.385)" fill="#1a1311"/>
    <path id="パス_259" data-name="パス 259" d="M211.1,134.992V134.3h5.586v.691a18.7,18.7,0,0,0-1.93-.1v5.1H213.1c-.011-.171,0-.355,0-.539s0-.386,0-.579v-3.981a16.633,16.633,0,0,0-2,.1" transform="translate(868.712 1638.987)" fill="#1a1311"/>
    <path id="パス_260" data-name="パス 260" d="M117.834,134.891a17.322,17.322,0,0,0-2.009.1V134.3h5.586v.692a19,19,0,0,0-1.931-.1v5.1h-1.645Z" transform="translate(936.088 1638.987)" fill="#1a1311"/>
  </g>
</svg>
