<svg xmlns="http://www.w3.org/2000/svg" width="82.402" height="80" viewBox="0 0 82.402 80">
  <g id="グループ_136" data-name="グループ 136" transform="translate(-1830.5 -14665.029)">
    <path id="パス_140" data-name="パス 140" d="M1882.1,14730.316" fill="#fff" stroke="#3e3a39" stroke-linejoin="bevel" stroke-width="1.932"/>
    <g id="グループ_134" data-name="グループ 134">
      <path id="パス_141" data-name="パス 141" d="M1900.282,14727.585h-6.039a.462.462,0,0,1-.369-.186l-10.588-14.336a.461.461,0,0,1-.089-.272v-4.843a.458.458,0,0,1,.458-.458h11.3v-7.847h-20.592v27.482a.458.458,0,0,1-.459.459h-4.867a.458.458,0,0,1-.458-.459v-27.482h-25.548a.457.457,0,0,1-.458-.458v-33.7a.459.459,0,0,1,.458-.459h30.873a.459.459,0,0,1,.459.459v11.309a.458.458,0,0,1-.459.458h-4.867a.458.458,0,0,1-.458-.458v-5.983h-20.223v23.047h20.223v-5.983a.459.459,0,0,1,.458-.459h4.867a.459.459,0,0,1,.459.459v5.983h25.918a.458.458,0,0,1,.458.458v18.5a.458.458,0,0,1-.458.458h-9.557l9.927,13.582a.458.458,0,0,1-.37.729Z" fill="#fff"/>
    </g>
    <g id="グループ_135" data-name="グループ 135">
      <path id="パス_142" data-name="パス 142" d="M1837.773,14745.023H1830.5v-9.724h7.273v3.051h-1.913v-1.138h-3.448v5.9h3.448v-1.126h1.913Z" fill="#fff"/>
      <path id="パス_143" data-name="パス 143" d="M1846.9,14745.024h-7.294v-9.725h7.294Zm-5.382-1.913h3.469v-5.9h-3.469Z" fill="#fff"/>
      <path id="パス_144" data-name="パス 144" d="M1865.111,14745.024h-7.294v-9.725h7.294Zm-5.381-1.913h3.469v-5.9h-3.469Z" fill="#fff"/>
      <path id="パス_145" data-name="パス 145" d="M1872.075,14741.041h2.156v-.973h.006v-4.769h-7.294v9.729h1.913v-7.816h3.468v1.915h-1.984l-.809,1.467,2.571,4.392h2.327Z" fill="#fff"/>
      <path id="パス_146" data-name="パス 146" d="M1883.361,14741.041h2.156v-.973h.006v-4.769h-7.294v9.729h1.913v-7.816h3.468v1.915h-1.984l-.809,1.467,2.571,4.392h2.327Z" fill="#fff"/>
      <path id="パス_147" data-name="パス 147" d="M1903.776,14745.029h-1.913v-7.816h-3.468v7.816h-1.913v-9.729h7.294Z" fill="#fff"/>
      <path id="パス_148" data-name="パス 148" d="M1912.9,14745.024h-7.294v-9.725h7.294Zm-5.381-1.913h3.468v-5.9h-3.468Z" fill="#fff"/>
      <path id="パス_149" data-name="パス 149" d="M1855.985,14745.023h-7.253v-9.725h1.913v7.812h5.341Z" fill="#fff"/>
      <path id="パス_150" data-name="パス 150" d="M1894.65,14737.213v-1.913h-7.294v9.724h7.294v-1.913h-5.381v-1.883l4.1-.026v-1.912l-4.1.025v-2.1Z" fill="#fff"/>
    </g>
  </g>
</svg>
