<svg xmlns="http://www.w3.org/2000/svg" width="563.836" height="204.355" viewBox="0 0 563.836 204.355">
  <path id="パス_272" data-name="パス 272" d="M-443.361-6.412A33.714,33.714,0,0,1-453.767-.946,39.483,39.483,0,0,1-466.7,1.261a37.814,37.814,0,0,1-18.185-4.52,34.7,34.7,0,0,1-13.507-13.034,38.136,38.136,0,0,1-5.1-19.972A39.282,39.282,0,0,1-498.809-55.5a33.177,33.177,0,0,1,13.35-13.3,41.234,41.234,0,0,1,20.235-4.783,43.951,43.951,0,0,1,21.864,5.361v11.668a23.69,23.69,0,0,0-9.46-9.2,27.03,27.03,0,0,0-13.244-3.416,28.138,28.138,0,0,0-15.5,4.2,27.2,27.2,0,0,0-10.038,11.51,37.633,37.633,0,0,0-3.469,16.345,37.949,37.949,0,0,0,3.942,17.764A28.593,28.593,0,0,0-480.466-7.726a28.6,28.6,0,0,0,15.031,4.047q13.35,0,22.074-7.778Zm18.08-28.907A40.646,40.646,0,0,1-420.5-55.185a33.859,33.859,0,0,1,13.455-13.56,40.43,40.43,0,0,1,20.024-4.835,38.857,38.857,0,0,1,17.712,4.152,32.093,32.093,0,0,1,13.244,12.456q4.993,8.3,4.993,19.972a40.646,40.646,0,0,1-4.783,19.867,33.859,33.859,0,0,1-13.455,13.56,40.43,40.43,0,0,1-20.024,4.835,38.857,38.857,0,0,1-17.712-4.152,32.093,32.093,0,0,1-13.244-12.456Q-425.281-23.651-425.281-35.319Zm65.8-.105a37.493,37.493,0,0,0-3.942-17.291A30.225,30.225,0,0,0-374.248-64.8a28.358,28.358,0,0,0-15.5-4.362,25.188,25.188,0,0,0-14.033,3.994,26.8,26.8,0,0,0-9.618,11.3A39.168,39.168,0,0,0-416.872-36.9,37.493,37.493,0,0,0-412.93-19.6,30.226,30.226,0,0,0-402.1-7.516a28.358,28.358,0,0,0,15.5,4.362,25.188,25.188,0,0,0,14.033-3.994,26.8,26.8,0,0,0,9.618-11.3A39.168,39.168,0,0,0-359.479-35.424Zm31.114-27.12a15.719,15.719,0,0,0-1-6.359,6.261,6.261,0,0,0-2.26-2.891q-1.261-.736-1.261-.526h16.713q0-.21-1.261.526a6.544,6.544,0,0,0-2.313,2.891,15.015,15.015,0,0,0-1.051,6.359V-4.2h17.239a16.2,16.2,0,0,0,8.146-1.945,11.544,11.544,0,0,0,4.888-4.993L-292.416,0h-40.469q0,.315,1.261-.473a6.655,6.655,0,0,0,2.26-3.153,18.439,18.439,0,0,0,1-6.885Zm48.983,27.225A40.646,40.646,0,0,1-274.6-55.185a33.859,33.859,0,0,1,13.455-13.56A40.43,40.43,0,0,1-241.12-73.58a38.857,38.857,0,0,1,17.712,4.152,32.093,32.093,0,0,1,13.244,12.456q4.993,8.3,4.993,19.972a40.646,40.646,0,0,1-4.783,19.867,33.859,33.859,0,0,1-13.455,13.56,40.43,40.43,0,0,1-20.024,4.835,38.857,38.857,0,0,1-17.712-4.152,32.093,32.093,0,0,1-13.244-12.456Q-279.382-23.651-279.382-35.319Zm65.8-.105a37.493,37.493,0,0,0-3.942-17.291A30.225,30.225,0,0,0-228.349-64.8a28.358,28.358,0,0,0-15.5-4.362,25.188,25.188,0,0,0-14.033,3.994,26.8,26.8,0,0,0-9.618,11.3A39.168,39.168,0,0,0-270.973-36.9,37.493,37.493,0,0,0-267.031-19.6,30.226,30.226,0,0,0-256.2-7.516a28.358,28.358,0,0,0,15.5,4.362,25.188,25.188,0,0,0,14.033-3.994,26.8,26.8,0,0,0,9.618-11.3A39.168,39.168,0,0,0-213.58-35.424Zm82.62,10.3a30,30,0,0,1-3.153,14.243A21.466,21.466,0,0,1-143-1.84a27.5,27.5,0,0,1-13.3,3.1q-12.509,0-19.341-6.938t-6.832-19.236V-62.543a15.719,15.719,0,0,0-1-6.359,6.444,6.444,0,0,0-2.207-2.891q-1.209-.736-1.209-.526h16.4q0-.21-1.209.526a6.45,6.45,0,0,0-2.207,2.838,14.664,14.664,0,0,0-1,6.1v37.946q0,10.2,4.888,15.767t14.348,5.571q8.725,0,13.77-5.308t5.046-15.715V-62.543A15.015,15.015,0,0,0-137.9-68.9a6.544,6.544,0,0,0-2.313-2.891q-1.261-.736-1.261-.526h15.137q0-.21-1.261.526a6.544,6.544,0,0,0-2.313,2.891,15.015,15.015,0,0,0-1.051,6.359ZM-86.812-36.37A15.4,15.4,0,0,0-78.4-38.63a14.8,14.8,0,0,0,5.413-5.886,16.628,16.628,0,0,0,1.84-7.621,17.68,17.68,0,0,0-1.734-7.726A14.4,14.4,0,0,0-78.192-65.8a15.724,15.724,0,0,0-8.725-2.313h-8.935V-9.671A15.015,15.015,0,0,0-94.8-3.311,6.159,6.159,0,0,0-92.488-.473Q-91.226.21-91.226,0H-107.94q0,.21,1.261-.526a6.267,6.267,0,0,0,2.26-2.838,15.324,15.324,0,0,0,1-6.307V-62.228a16.874,16.874,0,0,0-1-6.57,6.64,6.64,0,0,0-2.26-3.048q-1.261-.788-1.261-.473h20.813q8.2,0,13.507,2.68A17.366,17.366,0,0,1-65.946-62.7a18.837,18.837,0,0,1,2.365,9.3,18.459,18.459,0,0,1-2,8.252A20.761,20.761,0,0,1-71.307-38.1a21.459,21.459,0,0,1-8.672,4.152l-1.682.315,18.5,23.546q3.679,4.1,6.1,6.307A35.135,35.135,0,0,0-53.543-.841q1.1.736,1.314.841h-12.3L-93.119-36.37ZM-2.3-2.037Q-4.007.788-6.57.788a9.569,9.569,0,0,1-4.7-1.708,59.9,59.9,0,0,1-6.8-5.059Q-24.7.788-31.075.788q-6.044,0-9.395-3.219A11.133,11.133,0,0,1-43.82-10.84a10.391,10.391,0,0,1,2.4-6.964,31.852,31.852,0,0,1,7.128-5.847q-5.321-6.7-5.321-11.825a10.351,10.351,0,0,1,1.544-5.781,9.717,9.717,0,0,1,4.04-3.548,12.276,12.276,0,0,1,5.321-1.183,11.932,11.932,0,0,1,4.96,1.051A9.112,9.112,0,0,1-20-41.915a7.8,7.8,0,0,1,1.412,4.664,9.645,9.645,0,0,1-2.694,6.734,41.659,41.659,0,0,1-7.687,6.208A116.743,116.743,0,0,0-17.081-11.366a72.051,72.051,0,0,0,4.139-7.292,13.32,13.32,0,0,0,1.511-5.65,5.212,5.212,0,0,0-1.577-3.942h8.541Q-5.978-26.739-8.935-20.1A57.242,57.242,0,0,1-15.11-9.723q.394.263,1.183.92A58.363,58.363,0,0,0-8.179-4.664a9.029,9.029,0,0,0,4.7,1.511,5.333,5.333,0,0,0,2.234-.985A9.439,9.439,0,0,1-2.3-2.037Zm-26.87-41.915a5.851,5.851,0,0,0-4.862,1.971,7.24,7.24,0,0,0-1.577,4.664A12.012,12.012,0,0,0-34-31.83a41.491,41.491,0,0,0,3.712,5.814,19.825,19.825,0,0,0,5.814-4.927,9.451,9.451,0,0,0,1.741-5.65,7.358,7.358,0,0,0-1.905-5.486A6.245,6.245,0,0,0-29.169-43.951Zm-3.745,22.14a18.458,18.458,0,0,0-5.026,4.336,8.413,8.413,0,0,0-1.675,5.19,9.471,9.471,0,0,0,1.347,4.862,10.3,10.3,0,0,0,3.646,3.679,9.414,9.414,0,0,0,4.927,1.38,8.942,8.942,0,0,0,4.862-1.281,31.173,31.173,0,0,0,4.862-4.04q-3.351-3.088-6.8-6.865T-32.914-21.811ZM-543.023,70.018a15.4,15.4,0,0,0,8.409-2.26,14.8,14.8,0,0,0,5.413-5.886,16.628,16.628,0,0,0,1.839-7.621,17.68,17.68,0,0,0-1.734-7.726,14.4,14.4,0,0,0-5.308-5.939,15.724,15.724,0,0,0-8.725-2.313h-8.935V96.717a15.015,15.015,0,0,0,1.051,6.359,6.159,6.159,0,0,0,2.313,2.838q1.261.683,1.261.473h-16.713q0,.21,1.261-.526a6.266,6.266,0,0,0,2.26-2.838,15.324,15.324,0,0,0,1-6.307V44.16a16.875,16.875,0,0,0-1-6.57,6.64,6.64,0,0,0-2.26-3.048q-1.261-.788-1.261-.473h20.813q8.2,0,13.507,2.68a17.366,17.366,0,0,1,7.673,6.938,18.837,18.837,0,0,1,2.365,9.3,18.458,18.458,0,0,1-2,8.252,20.761,20.761,0,0,1-5.729,7.043,21.459,21.459,0,0,1-8.672,4.152l-1.682.315,18.5,23.546q3.679,4.1,6.1,6.307a35.133,35.133,0,0,0,3.521,2.943q1.1.736,1.314.841h-12.3l-28.591-36.37Zm101.751,11.247a30,30,0,0,1-3.153,14.243,21.466,21.466,0,0,1-8.882,9.04,27.5,27.5,0,0,1-13.3,3.1q-12.509,0-19.341-6.938t-6.832-19.236V43.844a15.719,15.719,0,0,0-1-6.359,6.444,6.444,0,0,0-2.207-2.891q-1.209-.736-1.209-.526h16.4q0-.21-1.209.526a6.45,6.45,0,0,0-2.207,2.838,14.664,14.664,0,0,0-1,6.1V81.476q0,10.2,4.888,15.767t14.348,5.571q8.725,0,13.77-5.308t5.046-15.715V43.844a15.015,15.015,0,0,0-1.051-6.359,6.544,6.544,0,0,0-2.312-2.891q-1.261-.736-1.261-.526h15.137q0-.21-1.261.526a6.544,6.544,0,0,0-2.313,2.891,15.015,15.015,0,0,0-1.051,6.359Zm58.128,26.279a41.206,41.206,0,0,1-18.5-4.2,32.863,32.863,0,0,1-13.665-12.614q-5.151-8.409-5.151-20.5a37.936,37.936,0,0,1,4.888-19.236,34.6,34.6,0,0,1,13.77-13.35,42.078,42.078,0,0,1,20.445-4.835,48.775,48.775,0,0,1,13.3,1.682,42.407,42.407,0,0,1,9.408,3.679V49.836a23.87,23.87,0,0,0-9.723-9.145,27.6,27.6,0,0,0-13.192-3.469,32.134,32.134,0,0,0-16.24,3.942,26.3,26.3,0,0,0-10.564,11.195,37.187,37.187,0,0,0-3.679,17.029q0,10.617,4.257,18.185a28.191,28.191,0,0,0,11.3,11.352,31.912,31.912,0,0,0,15.347,3.784,36.294,36.294,0,0,0,7.831-.893A33.924,33.924,0,0,0-365.8,99.24V81.9a10.331,10.331,0,0,0-1.051-5.1,7.235,7.235,0,0,0-2.312-2.628q-1.261-.788-1.261-.578h16.818q0-.21-1.261.42a6,6,0,0,0-2.313,2.365,9.467,9.467,0,0,0-1.051,4.888V100.4a46.963,46.963,0,0,1-12.036,5.308A46.865,46.865,0,0,1-383.143,107.544Zm45.935-26.594h18.5v6.1h-18.5Zm50.455,22.179a22.764,22.764,0,0,1-2.68,11.037,19.9,19.9,0,0,1-7.148,7.673,17.926,17.926,0,0,1-9.513,2.733,16.94,16.94,0,0,0,8.619-8.041,28.659,28.659,0,0,0,3.153-13.823V43.739a14.7,14.7,0,0,0-1.051-6.254,6.544,6.544,0,0,0-2.313-2.891q-1.261-.736-1.261-.526h16.713q0-.21-1.261.526a6.261,6.261,0,0,0-2.26,2.891,15.383,15.383,0,0,0-1,6.254Zm38.367,4.52a16.973,16.973,0,0,1-9.776-2.786,18.159,18.159,0,0,1-6.254-7.253,21.616,21.616,0,0,1-2.155-9.513A23.188,23.188,0,0,1-264,76.85a18.08,18.08,0,0,1,6.675-7.148,16.536,16.536,0,0,1,8.514-2.418,14.858,14.858,0,0,1,10.879,4.572q4.572,4.572,4.993,12.666h-27.33a19.841,19.841,0,0,0,1.892,8.882,14.274,14.274,0,0,0,5.1,5.886,12.725,12.725,0,0,0,6.99,2.05q9.881,0,13.35-6.307a14.529,14.529,0,0,1-5.151,9.145A15.654,15.654,0,0,1-248.386,107.649Zm-1.156-36.9a9.7,9.7,0,0,0-7.043,2.891,12.563,12.563,0,0,0-3.574,7.516h19.131a10.791,10.791,0,0,0-2.575-7.621A7.88,7.88,0,0,0-249.542,70.754Zm79.467,6.1a10.643,10.643,0,0,0,.736-3.889,5.848,5.848,0,0,0-.788-3.153,3.588,3.588,0,0,0-2.575-1.577h14.085a7.246,7.246,0,0,0-3,1.787q-1.84,1.577-3.626,5.886l-13.455,31.85-12.929-27.225-12.4,27.12-13.98-32.27a17.7,17.7,0,0,0-3.416-5.519A6.6,6.6,0,0,0-224,68.126h15.347q-2.733.526-2.733,3.574a10.855,10.855,0,0,0,.946,3.994l7.989,19.446,12.509-27.855,12.824,27.961Zm38.577,30.8a16.973,16.973,0,0,1-9.776-2.786,18.159,18.159,0,0,1-6.254-7.253,21.616,21.616,0,0,1-2.155-9.513,23.189,23.189,0,0,1,2.575-11.247,18.08,18.08,0,0,1,6.675-7.148,16.536,16.536,0,0,1,8.514-2.418,14.858,14.858,0,0,1,10.879,4.572q4.572,4.572,4.993,12.666h-27.33a19.841,19.841,0,0,0,1.892,8.882,14.274,14.274,0,0,0,5.1,5.886,12.725,12.725,0,0,0,6.99,2.05q9.881,0,13.35-6.307a14.529,14.529,0,0,1-5.151,9.145A15.654,15.654,0,0,1-131.5,107.649Zm-1.156-36.9a9.7,9.7,0,0,0-7.043,2.891,12.563,12.563,0,0,0-3.574,7.516h19.131a10.791,10.791,0,0,0-2.575-7.621A7.88,7.88,0,0,0-132.655,70.754Zm33.426-29.012q0-4.415-1.419-6.044a4.184,4.184,0,0,0-3.206-1.629h-.631L-92.5,28.6V95.876a19.308,19.308,0,0,0,.946,6.938,6.794,6.794,0,0,0,2.1,3.1q1.156.788,1.156.473h-15.137q0,.315,1.156-.473a6.811,6.811,0,0,0,2.1-3.153,19.376,19.376,0,0,0,.946-6.885ZM-64.751,76.85a19.686,19.686,0,0,1,5.2-6.465,11.259,11.259,0,0,1,7.305-3.1,7.461,7.461,0,0,1,3.469.631v8.619A7.932,7.932,0,0,0-55.29,73.7a7.887,7.887,0,0,0-6.938,3.837,17.566,17.566,0,0,0-2.523,9.828v8.514q0,5.886,1.366,8.094t2.628,2.418H-75.577q1.261-.21,2.68-2.365t1.419-8.146V80q0-4.415-1.419-6.044A4.184,4.184,0,0,0-76.1,72.331l11.352-5.046Zm41.625,26.384-12.3-27.855A17.7,17.7,0,0,0-38.84,69.86a6.6,6.6,0,0,0-2.575-1.734h15.347a4.8,4.8,0,0,0-1.892.946,3.152,3.152,0,0,0-.946,2.628,9.431,9.431,0,0,0,1.051,3.994l8.514,19.656,7.568-18.605a10.643,10.643,0,0,0,.736-3.889,5.848,5.848,0,0,0-.788-3.153A3.588,3.588,0,0,0-14.4,68.126H-.315a7.246,7.246,0,0,0-3,1.787Q-5.151,71.49-6.938,75.8l-14.3,33.216q-2.838,6.622-4.2,10.459t-2.628,7.936a32.793,32.793,0,0,1-1.051,3.364H-39.838q2.838-1.366,6.99-7.673a102.9,102.9,0,0,0,8.567-17.029Z" transform="translate(564.151 73.58)" fill="#e2d0ca"/>
</svg>
