<?xml version="1.0" encoding="UTF-8"?><svg id="_レイヤー_2" xmlns="http://www.w3.org/2000/svg" viewBox="0 0 534 204"><defs><style>.cls-1{fill:#efe3e0;}</style></defs><g id="design"><path class="cls-1" d="m174.15,72.51c-4.28,1.47-8.6,2.2-12.95,2.2-6.53,0-12.6-1.5-18.22-4.51-5.62-3.01-10.13-7.35-13.53-13.01-3.41-5.67-5.11-12.31-5.11-19.94,0-7.14,1.56-13.54,4.69-19.2,3.12-5.67,7.58-10.09,13.37-13.27,5.79-3.18,12.55-4.77,20.27-4.77,8.21,0,15.51,1.78,21.9,5.35v11.65c-2.18-3.85-5.34-6.91-9.48-9.18-4.14-2.27-8.56-3.41-13.27-3.41-5.97,0-11.14,1.4-15.53,4.2-4.39,2.8-7.74,6.63-10.06,11.49-2.32,4.86-3.47,10.3-3.47,16.32,0,6.79,1.32,12.7,3.95,17.73s6.19,8.9,10.69,11.6c4.49,2.69,9.51,4.04,15.06,4.04,8.91,0,16.28-2.59,22.11-7.76v5.04c-2.67,2.17-6.14,3.99-10.42,5.46Z"/><path class="cls-1" d="m202.36,18.36c3.19-5.81,7.69-10.32,13.48-13.54,5.79-3.22,12.48-4.83,20.06-4.83,6.32,0,12.23,1.38,17.74,4.14,5.51,2.76,9.93,6.91,13.27,12.43,3.33,5.53,5,12.17,5,19.94s-1.6,14.03-4.79,19.83c-3.19,5.81-7.69,10.32-13.48,13.54-5.79,3.22-12.48,4.83-20.06,4.83-6.32,0-12.23-1.38-17.74-4.14-5.51-2.76-9.93-6.91-13.27-12.43-3.33-5.53-5-12.17-5-19.94s1.6-14.02,4.79-19.83Zm57.17,2.47c-2.63-5.14-6.25-9.16-10.85-12.07-4.6-2.9-9.78-4.35-15.53-4.35-5.26,0-9.95,1.33-14.06,3.99-4.11,2.66-7.32,6.42-9.63,11.28-2.32,4.86-3.47,10.51-3.47,16.95s1.32,12.12,3.95,17.26,6.25,9.17,10.84,12.07c4.6,2.9,9.77,4.35,15.53,4.35,5.26,0,9.95-1.33,14.06-3.99,4.11-2.66,7.32-6.42,9.63-11.28,2.32-4.86,3.47-10.51,3.47-16.95s-1.32-12.12-3.95-17.26Z"/><path class="cls-1" d="m289.9,4.67c-.67-1.43-1.42-2.4-2.26-2.89-.84-.49-1.26-.66-1.26-.52h16.74c0-.14-.42.04-1.26.52-.84.49-1.62,1.45-2.32,2.89-.7,1.43-1.05,3.55-1.05,6.35v58.24h17.27c3.16,0,5.88-.65,8.16-1.94,2.28-1.29,3.91-2.95,4.9-4.98l-1.9,11.12h-40.54c0,.21.42.05,1.26-.47.84-.52,1.6-1.57,2.26-3.15.67-1.57,1-3.86,1-6.87V11.02c0-2.8-.33-4.91-1-6.35Z"/><path class="cls-1" d="m342.28,18.36c3.19-5.81,7.69-10.32,13.48-13.54,5.79-3.22,12.48-4.83,20.06-4.83,6.32,0,12.23,1.38,17.74,4.14,5.51,2.76,9.93,6.91,13.27,12.43,3.33,5.53,5,12.17,5,19.94s-1.6,14.03-4.79,19.83c-3.19,5.81-7.69,10.32-13.48,13.54-5.79,3.22-12.48,4.83-20.06,4.83-6.32,0-12.23-1.38-17.74-4.14-5.51-2.76-9.93-6.91-13.27-12.43-3.33-5.53-5-12.17-5-19.94s1.6-14.02,4.79-19.83Zm57.17,2.47c-2.63-5.14-6.25-9.16-10.85-12.07-4.6-2.9-9.78-4.35-15.53-4.35-5.26,0-9.95,1.33-14.06,3.99-4.11,2.66-7.32,6.42-9.63,11.28-2.32,4.86-3.47,10.51-3.47,16.95s1.32,12.12,3.95,17.26,6.25,9.17,10.84,12.07c4.6,2.9,9.77,4.35,15.53,4.35,5.26,0,9.95-1.33,14.06-3.99,4.11-2.66,7.32-6.42,9.63-11.28,2.32-4.86,3.47-10.51,3.47-16.95s-1.32-12.12-3.95-17.26Z"/><path class="cls-1" d="m455.88,34.89c2.39-1.5,4.19-3.46,5.42-5.88,1.23-2.41,1.84-4.95,1.84-7.61s-.58-5.3-1.74-7.71c-1.16-2.41-2.93-4.39-5.32-5.93-2.39-1.54-5.3-2.31-8.74-2.31h-8.95v58.34c0,2.8.35,4.92,1.05,6.35.7,1.43,1.47,2.38,2.32,2.83.84.46,1.26.61,1.26.47h-16.74c0,.14.42-.03,1.26-.52.84-.49,1.6-1.43,2.26-2.83.67-1.4,1-3.5,1-6.3V11.33c0-2.87-.33-5.05-1-6.56-.67-1.5-1.42-2.52-2.26-3.04-.84-.52-1.26-.68-1.26-.47h20.85c5.48,0,9.98.89,13.53,2.68,3.54,1.78,6.11,4.09,7.69,6.93,1.58,2.83,2.37,5.93,2.37,9.29,0,2.8-.67,5.55-2,8.24-1.33,2.69-3.25,5.04-5.74,7.03-2.49,1.99-5.39,3.38-8.69,4.14l-1.68.31,18.53,23.5c2.46,2.73,4.49,4.83,6.11,6.3,1.61,1.47,2.79,2.45,3.53,2.94.74.49,1.17.77,1.32.84h-12.32l-28.64-36.31h6.32c3.23,0,6.04-.75,8.42-2.26Z"/><path class="cls-1" d="m527.74,69.96c-1.27,0-2.84-.57-4.71-1.71-1.87-1.14-4.14-2.82-6.81-5.05-4.43,4.5-8.78,6.76-13.03,6.76s-7.17-1.07-9.41-3.21c-2.24-2.14-3.36-4.94-3.36-8.39,0-2.75.8-5.07,2.4-6.95,1.6-1.88,3.98-3.83,7.14-5.84-3.55-4.46-5.33-8.39-5.33-11.8,0-2.27.52-4.2,1.55-5.77,1.03-1.57,2.38-2.75,4.05-3.54,1.67-.79,3.44-1.18,5.33-1.18,1.75,0,3.41.35,4.97,1.05,1.56.7,2.81,1.71,3.75,3.02.94,1.31,1.42,2.86,1.42,4.66,0,2.54-.9,4.78-2.7,6.72-1.8,1.95-4.37,4.01-7.7,6.2,4.04,5.03,8.01,9.34,11.91,12.92,1.75-2.75,3.14-5.18,4.15-7.28,1.01-2.1,1.51-3.98,1.51-5.64s-.53-2.93-1.58-3.93h8.56c-1.01,1.01-2.5,3.72-4.48,8.13-1.36,3.1-3.42,6.56-6.19,10.36.26.18.66.48,1.18.92,2.19,1.75,4.11,3.13,5.76,4.13,1.65,1.01,3.21,1.51,4.71,1.51.44,0,1.18-.33,2.24-.98-.26.74-.62,1.44-1.05,2.1-1.14,1.88-2.57,2.82-4.28,2.82Zm-31.42-18.23c-1.12,1.49-1.68,3.21-1.68,5.18,0,1.71.45,3.32,1.35,4.85.9,1.53,2.12,2.75,3.65,3.67,1.54.92,3.18,1.38,4.94,1.38,1.89,0,3.51-.43,4.87-1.28,1.36-.85,2.98-2.2,4.87-4.03-2.24-2.05-4.51-4.34-6.81-6.85-2.3-2.51-4.35-4.93-6.15-7.25-2.24,1.4-3.92,2.84-5.03,4.33Zm3.92-24.46c-1.05,1.31-1.58,2.86-1.58,4.66,0,1.62.54,3.44,1.61,5.48,1.07,2.03,2.31,3.97,3.72,5.8,2.72-1.66,4.66-3.3,5.82-4.92,1.16-1.62,1.74-3.5,1.74-5.64,0-2.4-.64-4.23-1.91-5.48-1.27-1.25-2.79-1.87-4.54-1.87-2.19,0-3.82.66-4.87,1.97Z"/><path class="cls-1" d="m29.59,141.09c2.39-1.5,4.19-3.46,5.42-5.88,1.23-2.41,1.84-4.95,1.84-7.61s-.58-5.3-1.74-7.71c-1.16-2.41-2.93-4.39-5.32-5.93-2.39-1.54-5.3-2.31-8.74-2.31h-8.95v58.34c0,2.8.35,4.92,1.05,6.35.7,1.43,1.47,2.38,2.32,2.83.84.46,1.26.61,1.26.47H0c0,.14.42-.03,1.26-.52.84-.49,1.6-1.43,2.26-2.83.67-1.4,1-3.5,1-6.3v-52.47c0-2.87-.33-5.05-1-6.56-.67-1.5-1.42-2.52-2.26-3.04-.84-.52-1.26-.68-1.26-.47h20.85c5.48,0,9.98.89,13.53,2.68,3.54,1.78,6.11,4.09,7.69,6.93,1.58,2.83,2.37,5.93,2.37,9.29,0,2.8-.67,5.55-2,8.24-1.33,2.69-3.25,5.04-5.74,7.03-2.49,1.99-5.39,3.38-8.69,4.14l-1.68.31,18.53,23.5c2.46,2.73,4.49,4.83,6.11,6.3,1.61,1.47,2.79,2.45,3.53,2.94.74.49,1.17.77,1.32.84h-12.32l-28.64-36.31h6.32c3.23,0,6.04-.75,8.42-2.26Z"/><path class="cls-1" d="m118.41,154.58c0,5.53-1.05,10.27-3.16,14.22-2.11,3.95-5.07,6.96-8.9,9.02-3.83,2.06-8.27,3.1-13.32,3.1-8.35,0-14.81-2.31-19.37-6.93-4.56-4.62-6.84-11.02-6.84-19.2v-37.57c0-2.8-.33-4.91-1-6.35-.67-1.43-1.41-2.4-2.21-2.89-.81-.49-1.21-.66-1.21-.52h16.43c0-.14-.4.04-1.21.52-.81.49-1.54,1.43-2.21,2.83-.67,1.4-1,3.43-1,6.09v37.88c0,6.79,1.63,12.03,4.9,15.74,3.26,3.71,8.05,5.56,14.37,5.56,5.83,0,10.42-1.77,13.79-5.3,3.37-3.53,5.05-8.76,5.05-15.69v-37.88c0-2.8-.35-4.91-1.05-6.35-.7-1.43-1.47-2.4-2.32-2.89-.84-.49-1.26-.66-1.26-.52h15.16c0-.14-.42.04-1.26.52-.84.49-1.62,1.45-2.32,2.89-.7,1.43-1.05,3.55-1.05,6.35v37.36Z"/><path class="cls-1" d="m154.77,176.61c-5.69-2.8-10.25-6.99-13.69-12.59-3.44-5.6-5.16-12.42-5.16-20.46,0-7.14,1.63-13.54,4.9-19.2,3.26-5.67,7.86-10.11,13.79-13.33,5.93-3.22,12.76-4.83,20.48-4.83,4.91,0,9.35.56,13.32,1.68,3.96,1.12,7.11,2.34,9.42,3.67v11.65c-2.18-3.78-5.42-6.82-9.74-9.13-4.32-2.31-8.72-3.46-13.21-3.46-6.25,0-11.67,1.31-16.27,3.93-4.6,2.62-8.13,6.35-10.58,11.18-2.46,4.83-3.68,10.49-3.68,17,0,7.07,1.42,13.12,4.26,18.15,2.84,5.04,6.62,8.81,11.32,11.33,4.7,2.52,9.83,3.78,15.37,3.78,2.53,0,5.14-.3,7.84-.89,2.7-.59,5.21-1.45,7.53-2.57v-17.31c0-2.17-.35-3.86-1.05-5.09-.7-1.22-1.47-2.1-2.32-2.62s-1.26-.72-1.26-.58h16.85c0-.14-.42,0-1.26.42-.84.42-1.62,1.21-2.32,2.36-.7,1.15-1.05,2.78-1.05,4.88v19.1c-3.72,2.31-7.74,4.08-12.06,5.3-4.32,1.22-8.62,1.84-12.9,1.84-6.67,0-12.85-1.4-18.53-4.2Z"/><path class="cls-1" d="m216.49,154.26h18.53v6.09h-18.53v-6.09Z"/><path class="cls-1" d="m261.9,176.4c0,4.06-.89,7.73-2.68,11.02-1.79,3.29-4.18,5.84-7.16,7.66-2.98,1.82-6.16,2.73-9.53,2.73,3.65-1.47,6.53-4.14,8.63-8.03,2.11-3.88,3.16-8.48,3.16-13.8v-58.87c0-2.73-.35-4.81-1.05-6.24-.7-1.43-1.47-2.4-2.32-2.89-.84-.49-1.26-.66-1.26-.52h16.74c0-.14-.42.04-1.26.52-.84.49-1.6,1.45-2.26,2.89-.67,1.43-1,3.52-1,6.24v59.29Z"/><path class="cls-1" d="m287.38,178.13c-2.74-1.85-4.83-4.27-6.26-7.24-1.44-2.97-2.16-6.14-2.16-9.5,0-4.34.86-8.08,2.58-11.23,1.72-3.15,3.95-5.53,6.69-7.14,2.74-1.61,5.58-2.41,8.53-2.41,4.21,0,7.84,1.52,10.9,4.56,3.05,3.04,4.72,7.26,5,12.64h-27.38c0,3.36.63,6.31,1.9,8.87,1.26,2.55,2.96,4.51,5.11,5.88,2.14,1.36,4.48,2.05,7,2.05,6.6,0,11.06-2.1,13.37-6.3-.63,3.78-2.35,6.82-5.16,9.13-2.81,2.31-6.25,3.46-10.32,3.46-3.79,0-7.05-.93-9.79-2.78Zm1.58-31.16c-1.97,1.92-3.16,4.43-3.58,7.5h19.16c0-3.22-.86-5.75-2.58-7.61-1.72-1.85-3.7-2.78-5.95-2.78-2.74,0-5.09.96-7.05,2.89Z"/><path class="cls-1" d="m371.97,150.17c.49-1.26.74-2.55.74-3.88,0-1.26-.26-2.31-.79-3.15s-1.39-1.36-2.58-1.57h14.11c-.77.14-1.77.73-3,1.78-1.23,1.05-2.44,3.01-3.63,5.88l-13.48,31.79-12.95-27.18-12.42,27.07-14-32.21c-1.19-2.66-2.33-4.49-3.42-5.51-1.09-1.01-1.95-1.59-2.58-1.73h15.37c-1.83.35-2.74,1.54-2.74,3.57,0,1.12.32,2.45.95,3.99l8,19.41,12.53-27.81,12.85,27.91,7.05-18.36Z"/><path class="cls-1" d="m396.44,178.13c-2.74-1.85-4.83-4.27-6.26-7.24-1.44-2.97-2.16-6.14-2.16-9.5,0-4.34.86-8.08,2.58-11.23,1.72-3.15,3.95-5.53,6.69-7.14,2.74-1.61,5.58-2.41,8.53-2.41,4.21,0,7.84,1.52,10.9,4.56,3.05,3.04,4.72,7.26,5,12.64h-27.38c0,3.36.63,6.31,1.9,8.87,1.26,2.55,2.96,4.51,5.11,5.88,2.14,1.36,4.48,2.05,7,2.05,6.6,0,11.06-2.1,13.37-6.3-.63,3.78-2.35,6.82-5.16,9.13-2.81,2.31-6.25,3.46-10.32,3.46-3.79,0-7.05-.93-9.79-2.78Zm1.58-31.16c-1.97,1.92-3.16,4.43-3.58,7.5h19.16c0-3.22-.86-5.75-2.58-7.61-1.72-1.85-3.7-2.78-5.95-2.78-2.74,0-5.09.96-7.05,2.89Z"/><path class="cls-1" d="m434.43,109.09c-.95-1.08-2.02-1.63-3.21-1.63h-.63l12-5.46v67.16c0,3.08.32,5.39.95,6.93.63,1.54,1.33,2.57,2.11,3.1.77.52,1.16.68,1.16.47h-15.16c0,.21.39.05,1.16-.47.77-.52,1.47-1.57,2.11-3.15.63-1.57.95-3.86.95-6.87v-54.04c0-2.94-.47-4.95-1.42-6.03Z"/><path class="cls-1" d="m473.69,143.72c2.42-2.06,4.86-3.1,7.32-3.1,1.54,0,2.7.21,3.47.63v8.6c-1.54-1.89-3.72-2.83-6.53-2.83-2.95,0-5.26,1.28-6.95,3.83-1.68,2.55-2.53,5.82-2.53,9.81v8.5c0,3.92.46,6.61,1.37,8.08.91,1.47,1.79,2.27,2.63,2.41h-14.85c.84-.14,1.74-.93,2.68-2.36.95-1.43,1.42-4.14,1.42-8.13v-15.84c0-2.94-.47-4.95-1.42-6.03-.95-1.08-2.02-1.63-3.21-1.63l11.37-5.04v9.55c1.05-2.24,2.79-4.39,5.21-6.45Z"/><path class="cls-1" d="m511.15,176.51l-12.32-27.81c-1.19-2.66-2.33-4.49-3.42-5.51-1.09-1.01-1.95-1.59-2.58-1.73h15.37c-.63.14-1.26.46-1.9.94-.63.49-.95,1.36-.95,2.62,0,1.19.35,2.52,1.05,3.99l8.53,19.62,7.58-18.57c.49-1.26.74-2.55.74-3.88,0-1.26-.26-2.31-.79-3.15-.53-.84-1.39-1.36-2.58-1.57h14.11c-.77.14-1.77.73-3,1.78-1.23,1.05-2.44,3.01-3.63,5.88l-14.32,33.16c-1.9,4.41-3.3,7.89-4.21,10.44-.91,2.55-1.79,5.19-2.63,7.92-.35,1.33-.7,2.45-1.05,3.36h-10.74c1.9-.91,4.23-3.46,7-7.66,2.77-4.2,5.63-9.86,8.58-17l1.16-2.83Z"/></g></svg>