<?xml version="1.0" encoding="UTF-8"?><svg id="_レイヤー_2" xmlns="http://www.w3.org/2000/svg" viewBox="0 0 82 80"><defs><style>.cls-1{fill:#fff;}</style></defs><g id="design"><path class="cls-1" d="m69.44,62.56h-6.01c-.14,0-.28-.07-.37-.19l-10.54-14.34c-.06-.08-.09-.17-.09-.27v-4.84c0-.25.2-.46.46-.46h11.25v-7.85h-20.49v27.48c0,.25-.2.46-.46.46h-4.84c-.25,0-.46-.21-.46-.46v-27.48H12.47c-.25,0-.46-.21-.46-.46V.46c0-.25.2-.46.46-.46h30.72c.25,0,.46.21.46.46v11.31c0,.25-.2.46-.46.46h-4.84c-.25,0-.46-.21-.46-.46v-5.98h-20.12v23.05h20.12v-5.98c0-.25.2-.46.46-.46h4.84c.25,0,.46.21.46.46v5.98h25.79c.25,0,.46.21.46.46v18.5c0,.25-.2.46-.46.46h-9.51l9.88,13.58c.1.14.12.32.04.48-.08.15-.23.25-.41.25Z"/><polygon class="cls-1" points="7.24 79.99 0 79.99 0 70.27 7.24 70.27 7.24 73.32 5.33 73.32 5.33 72.18 1.9 72.18 1.9 78.08 5.33 78.08 5.33 76.95 7.24 76.95 7.24 79.99"/><path class="cls-1" d="m16.32,79.99h-7.26v-9.72h7.26v9.72Zm-5.36-1.91h3.45v-5.9h-3.45v5.9Z"/><path class="cls-1" d="m34.44,79.99h-7.26v-9.72h7.26v9.72Zm-5.36-1.91h3.45v-5.9h-3.45v5.9Z"/><polygon class="cls-1" points="41.37 76.01 43.52 76.01 43.52 75.04 43.52 75.04 43.52 70.27 36.27 70.27 36.27 80 38.17 80 38.17 72.18 41.62 72.18 41.62 74.1 39.65 74.1 38.84 75.56 41.4 79.96 43.72 79.96 41.37 76.01"/><polygon class="cls-1" points="52.6 76.01 54.75 76.01 54.75 75.04 54.76 75.04 54.76 70.27 47.5 70.27 47.5 80 49.4 80 49.4 72.18 52.85 72.18 52.85 74.1 50.88 74.1 50.07 75.56 52.63 79.96 54.95 79.96 52.6 76.01"/><polygon class="cls-1" points="72.92 80 71.01 80 71.01 72.18 67.56 72.18 67.56 80 65.66 80 65.66 70.27 72.92 70.27 72.92 80"/><path class="cls-1" d="m82,79.99h-7.26v-9.72h7.26v9.72Zm-5.35-1.91h3.45v-5.9h-3.45v5.9Z"/><polygon class="cls-1" points="25.36 79.99 18.14 79.99 18.14 70.27 20.05 70.27 20.05 78.08 25.36 78.08 25.36 79.99"/><polygon class="cls-1" points="63.84 72.18 63.84 70.27 56.58 70.27 56.58 79.99 63.84 79.99 63.84 78.08 58.48 78.08 58.48 76.2 62.56 76.17 62.56 74.26 58.48 74.28 58.48 72.18 63.84 72.18"/></g></svg>