<?xml version="1.0" encoding="UTF-8"?>
<svg id="_レイヤー_2" data-name="レイヤー 2" xmlns="http://www.w3.org/2000/svg" viewBox="0 0 134.7 152">
  <defs>
    <style>
      .cls-1 {
        fill: #fff;
      }
    </style>
  </defs>
  <g id="_レイヤー_1-2" data-name="レイヤー 1">
    <g>
      <path class="cls-1" d="M10.94,121.46c-.96,.47-1.95,.66-2.87,.66-3.28,0-5.59-2.48-5.59-7.08s2.57-7.08,5.76-7.08c.76,0,1.6,.19,2.47,.68l.46,2.7h1.44l-.1-3.42c-1.6-.92-3.28-1.13-4.55-1.13-4.6,0-7.95,3.54-7.95,8.26s3.21,8.26,7.97,8.26c1.65,0,3.28-.33,4.77-1.13l.09-3.42h-1.44l-.46,2.71Z"/>
      <path class="cls-1" d="M19.77,111.46c-2.71,0-5.38,2.03-5.38,5.94s2.67,5.85,5.38,5.85,5.38-1.93,5.38-5.85-2.71-5.94-5.38-5.94Zm0,10.73c-2.1,0-3.26-1.63-3.26-4.79s1.16-4.88,3.26-4.88,3.26,1.72,3.26,4.88-1.2,4.79-3.26,4.79Z"/>
      <path class="cls-1" d="M30.27,122.95h1.89v-.83l-1.9-.34c-.03-1.26-.05-2.53-.05-3.79v-8.96l.09-3.35-.33-.19-3.61,1.06v.83l1.96,.23v10.38c0,1.26-.03,2.53-.05,3.79l-1.9,.34v.83h3.92Z"/>
      <path class="cls-1" d="M44.11,117.4c0-3.92-2.71-5.94-5.38-5.94s-5.38,2.03-5.38,5.94,2.67,5.85,5.38,5.85,5.38-1.93,5.38-5.85Zm-8.63,0c0-3.16,1.16-4.88,3.26-4.88s3.26,1.72,3.26,4.88-1.2,4.79-3.26,4.79-3.26-1.63-3.26-4.79Z"/>
      <path class="cls-1" d="M49.99,123.25c1.43,0,2.91-.67,4.19-2.22h.01l.25,2.1,3.18-.19v-.83l-1.63-.35v-6.61l.07-3.3-.23-.24-3.35,.31v.83l1.7,.36-.06,6.91c-1.11,1.03-2.25,1.57-3.38,1.57-1.3,0-1.91-.73-1.91-2.83v-3.61l.12-3.3-.24-.24-3.4,.31v.83l1.69,.36-.07,5.89c-.02,3.11,1.15,4.25,3.04,4.25Z"/>
      <path class="cls-1" d="M63.13,116.25c.43-1.37,1.05-2.37,1.99-3.09l.3,.25c.42,.35,.87,.57,1.41,.57,.95,0,1.37-.61,1.37-1.72-.28-.47-.99-.8-1.68-.8-1.29,0-2.62,1.15-3.41,3.07l-.27-2.84-.35-.24-3.21,1.41v.83l1.89,.21c.05,.94,.07,1.67,.07,2.97v1.11c0,1.06-.01,2.63-.04,3.81l-1.73,.31v.83h5.66v-.83l-1.97-.36c-.02-1.18-.04-2.72-.04-3.77v-1.74Z"/>
      <path class="cls-1" d="M84.24,122.17c.76,.8,1.49,1.09,2.71,1.09,.61,0,1.09-.07,1.77-.24l.09-.99-2.28-.28c-.73-.77-1.37-1.46-1.96-2.09,1.08-1.64,1.91-3.4,2.44-5.57l1.83-.32v-.94h-4.76v.94l1.85,.29c-.44,1.88-1.1,3.45-2,4.9-.93-1-1.77-1.9-2.73-2.95-.81-.89-1.39-1.52-1.91-2.1,2.42-1.31,3.51-2.48,3.51-4.1,0-1.77-1.25-3.02-3.56-3.02s-3.82,1.27-3.82,3.33c0,1.25,.45,2.45,1.63,3.8,.04,.04,.07,.08,.11,.13-2.33,1.18-3.58,2.78-3.58,4.9,0,2.41,2.05,4.32,5,4.32,2.26,0,3.78-.89,4.81-2.04,.28,.31,.55,.62,.86,.95Zm-5.02-14.56c1.18,0,2.08,.85,2.08,2.24s-1.06,2.43-2.54,3.44c-.21-.25-.42-.5-.64-.77-.87-1.11-1.06-1.84-1.06-2.69,0-1.27,.97-2.22,2.17-2.22Zm-.07,14.16c-2.31,0-3.59-1.72-3.59-3.45,0-1.18,.46-2.62,2.17-3.62,.79,.92,1.5,1.78,2.57,3.06,.79,.88,1.56,1.75,2.42,2.71-.91,.82-2.22,1.3-3.57,1.3Z"/>
      <path class="cls-1" d="M106.61,118.25c-.56-1.87-1.43-2.69-2.79-2.98,2.65-.45,4.02-2.13,4.02-3.98,0-2.62-2.12-4.15-5.73-4.15h-6.53v.95l2.19,.25c.04,2.04,.05,4.08,.05,6.12v1.18c0,2.07,0,4.11-.05,6.12l-2.19,.25v.94h6.61v-.94l-2.2-.25c-.04-1.97-.04-3.98-.04-6.11h1.18c1.96,0,2.83,.33,3.3,2.24l.97,3.84c.28,1.09,.92,1.46,2.38,1.46,.71,0,1.27-.09,1.7-.24v-.94l-1.81-.21-1.05-3.54Zm-6.67-3.68c0-2.32,0-4.32,.05-6.35h2.1c2.45,0,3.52,1.09,3.52,3.07s-1.23,3.28-3.77,3.28h-1.89Z"/>
      <path class="cls-1" d="M120.62,115.16l.07-3.3-.24-.24-3.35,.31v.83l1.7,.36-.06,6.91c-1.11,1.03-2.25,1.57-3.38,1.57-1.3,0-1.91-.73-1.91-2.83v-3.61l.12-3.3-.24-.24-3.4,.31v.83l1.69,.36-.07,5.89c-.02,3.11,1.16,4.25,3.04,4.25,1.43,0,2.91-.67,4.19-2.22h.01l.25,2.1,3.18-.19v-.83l-1.63-.35v-6.61Z"/>
      <path class="cls-1" d="M134.7,111.69l-.35-.23-2.68,.91c-.74-.61-1.76-.91-2.93-.91-2.41,0-4.25,1.37-4.25,3.87,0,1.62,.7,2.72,1.81,3.32-1.16,1.11-1.58,1.88-1.58,2.6,0,.92,.53,1.5,1.56,1.79-1.77,.87-2.34,1.67-2.34,2.69,0,1.7,1.49,2.88,4.88,2.88,3.82,0,5.76-2.03,5.76-4.06,0-1.91-1.2-3.02-3.73-3.02h-3.11c-1.11,0-1.37-.42-1.37-1.06,0-.56,.2-1,.62-1.53,.52,.17,1.09,.25,1.71,.25,2.38,0,4.22-1.37,4.22-3.87,0-.88-.22-1.59-.58-2.17h2.35v-1.46Zm-4.2,11.56c1.72,0,2.38,.8,2.38,1.86,0,1.34-1.39,2.43-3.99,2.43-1.84,0-3.04-.61-3.04-2.17,0-.79,.3-1.43,.97-2.17,.29,.03,.59,.04,.89,.04h2.78Zm-1.86-5c-1.46,0-2.31-1.18-2.31-2.9s.92-2.95,2.43-2.95,2.33,1.18,2.33,2.85-.92,3-2.45,3Z"/>
      <path class="cls-1" d="M29.52,136.03v.83l1.89,.21c.05,.94,.07,1.67,.07,2.97v3.63c0,3.63-.14,5.52-.52,6.51-.11,.28-.25,.48-.4,.63l-.55-.39c-.64-.45-1.13-.68-1.75-.68-.68,0-1.16,.31-1.37,.92,0,.61,.64,1.35,2.05,1.35s2.19-.52,2.92-1.32c1.25-1.34,1.39-3.09,1.39-7.01v-5.64l.07-3.19-.35-.24-3.47,1.42Z"/>
      <path class="cls-1" d="M32.4,128.97c-.87,0-1.56,.59-1.56,1.48s.68,1.49,1.56,1.49,1.56-.61,1.56-1.49-.68-1.48-1.56-1.48Z"/>
      <path class="cls-1" d="M45.66,139.12c0-2.85-1.93-4.51-4.36-4.51-2.93,0-5.38,2.41-5.38,6.02s2.05,5.78,5.21,5.78c2.15,0,3.66-1.06,4.51-2.74l-.54-.42c-.85,.99-1.79,1.67-3.3,1.67-2.33,0-3.82-1.57-3.86-4.48h7.57c.09-.31,.16-.78,.16-1.32Zm-3.26,.33h-4.42c.28-2.71,1.83-3.78,3.2-3.78,1.49,0,2.62,1.23,2.62,2.57,0,.66-.26,1.2-1.39,1.2Z"/>
      <path class="cls-1" d="M61.94,134.92h-2.15v.9l1.77,.32-2.22,7.24-2.74-7.25,1.8-.32v-.9h-5.19v.9l1.78,.29-2.67,7.3-2.48-7.3,1.86-.29v-.9h-5.33v.9l1.37,.24,3.8,10.19h.83l3.13-8.4c.53,1.62,1.29,3.78,3.1,8.4h.83l3.44-10.12,1.26-.31v-.9h-2.17Z"/>
      <path class="cls-1" d="M74.7,139.12c0-2.85-1.93-4.51-4.36-4.51-2.93,0-5.38,2.41-5.38,6.02s2.05,5.78,5.21,5.78c2.15,0,3.66-1.06,4.51-2.74l-.54-.42c-.85,.99-1.79,1.67-3.3,1.67-2.33,0-3.82-1.57-3.86-4.48h7.57c.09-.31,.16-.78,.16-1.32Zm-3.26,.33h-4.42c.28-2.71,1.83-3.78,3.2-3.78,1.49,0,2.62,1.23,2.62,2.57,0,.66-.26,1.2-1.39,1.2Z"/>
      <path class="cls-1" d="M79.84,141.15v-8.96l.09-3.35-.33-.19-3.61,1.06v.83l1.96,.24v10.38c0,1.26-.03,2.53-.05,3.79l-1.9,.34v.83h5.8v-.83l-1.9-.34c-.03-1.26-.05-2.53-.05-3.79Z"/>
      <path class="cls-1" d="M90.46,134.61c-1.29,0-2.62,1.15-3.41,3.07l-.27-2.84-.35-.23-3.21,1.41v.83l1.89,.21c.05,.94,.07,1.67,.07,2.97v1.11c0,1.06-.01,2.63-.04,3.81l-1.73,.31v.83h5.66v-.83l-1.97-.36c-.02-1.18-.04-2.72-.04-3.77v-1.74c.43-1.37,1.05-2.37,1.99-3.09l.3,.25c.42,.35,.87,.57,1.41,.57,.95,0,1.37-.61,1.37-1.72-.28-.47-.99-.8-1.68-.8Z"/>
      <path class="cls-1" d="M103.17,134.92h-2.5v.83l2.09,.3-2.94,8.11-3-8.13,2.12-.25v-.85h-5.61v.83l1.3,.2,4.27,10.76-.1,.29c-.46,1.29-1.15,2.57-2.18,3.43l-.11-.11c-.64-.64-1.11-.87-1.72-.87-.71,0-1.39,.33-1.56,.99,0,.92,.99,1.56,2.15,1.56,1.93,0,3.26-1.79,4.86-6.04l3.78-9.94,1.27-.27v-.83h-2.12Z"/>
      <path class="cls-1" d="M56.28,89.59h49.95V38.41L76.02,4.87l-.16-.17H26.19l.64,52.72,29.44,32.17ZM75.4,5.74l29.78,33.07v49.73H56.74l-28.86-31.54-.62-51.27h48.15Z"/>
      <polygon class="cls-1" points="63.82 50.95 63.82 81.76 68.32 81.76 68.32 50.95 69.37 49.91 92.84 49.91 93.89 50.95 93.89 59.9 92.84 60.94 80.48 60.94 80.48 65.77 92.29 81.76 97.89 81.76 87.18 67.1 88.02 65.45 98.39 65.45 98.39 45.4 69.37 45.4 68.32 44.36 68.32 38.06 63.82 38.06 63.82 44.36 62.77 45.4 39.72 45.4 38.67 44.36 38.67 18.08 39.72 17.04 62.77 17.04 63.82 18.08 63.82 24.38 68.32 24.38 68.32 12.53 34.17 12.53 34.17 49.91 62.77 49.91 63.82 50.95"/>
      <path class="cls-1" d="M54.03,94.29h56.96V36.12L78.25,0H21.55l.65,59.72,31.82,34.57ZM77.33,2.09l31.58,34.84v55.28H54.94L24.28,58.89l-.62-56.8h53.66Z"/>
    </g>
  </g>
</svg>