<svg xmlns="http://www.w3.org/2000/svg" width="30" height="30" viewBox="0 0 30 30">
  <g id="グループ_217" data-name="グループ 217" transform="translate(-1203 -12935)">
    <path id="パス_197" data-name="パス 197" d="M1218,12937.7c4.005,0,4.48.015,6.061.087a8.3,8.3,0,0,1,2.786.517,4.969,4.969,0,0,1,2.846,2.847,8.284,8.284,0,0,1,.517,2.786c.072,1.58.087,2.056.087,6.061s-.015,4.48-.087,6.061a8.284,8.284,0,0,1-.517,2.786,4.969,4.969,0,0,1-2.846,2.847,8.3,8.3,0,0,1-2.786.517c-1.581.072-2.056.087-6.061.087s-4.48-.015-6.061-.087a8.3,8.3,0,0,1-2.786-.517,4.969,4.969,0,0,1-2.846-2.847,8.284,8.284,0,0,1-.517-2.786c-.072-1.58-.087-2.056-.087-6.061s.015-4.48.087-6.061a8.284,8.284,0,0,1,.517-2.786,4.969,4.969,0,0,1,2.846-2.847,8.3,8.3,0,0,1,2.786-.517c1.581-.072,2.056-.087,6.061-.087m0-2.7c-4.074,0-4.585.017-6.184.09a11.047,11.047,0,0,0-3.642.7,7.679,7.679,0,0,0-4.387,4.387,11.044,11.044,0,0,0-.7,3.643c-.073,1.6-.09,2.109-.09,6.184s.017,4.585.09,6.184a11.044,11.044,0,0,0,.7,3.643,7.679,7.679,0,0,0,4.387,4.387,11.047,11.047,0,0,0,3.642.7c1.6.073,2.11.09,6.184.09s4.585-.017,6.184-.09a11.047,11.047,0,0,0,3.642-.7,7.679,7.679,0,0,0,4.387-4.387,11.044,11.044,0,0,0,.7-3.643c.073-1.6.09-2.109.09-6.184s-.017-4.585-.09-6.184a11.044,11.044,0,0,0-.7-3.643,7.679,7.679,0,0,0-4.387-4.387,11.047,11.047,0,0,0-3.642-.7c-1.6-.073-2.11-.09-6.184-.09Z" fill="#3e3a39"/>
    <path id="パス_198" data-name="パス 198" d="M1218,12942.3a7.7,7.7,0,1,0,7.7,7.7A7.7,7.7,0,0,0,1218,12942.3Zm0,12.7a5,5,0,1,1,5-5A5,5,0,0,1,1218,12955Z" fill="#3e3a39"/>
    <circle id="楕円形_19" data-name="楕円形 19" cx="1.8" cy="1.8" r="1.8" transform="translate(1224.207 12940.193)" fill="#3e3a39"/>
  </g>
</svg>
