<svg xmlns="http://www.w3.org/2000/svg" width="17.525" height="24.408" viewBox="0 0 17.525 24.408">
  <path id="パス_155" data-name="パス 155" d="M-815.386,546.643a8.815,8.815,0,0,0-8.281-8.831,8.758,8.758,0,0,0-9.244,8.747c0,2.548,2.818,6.441,2.818,6.441h-.025l4.983,8.64a1.142,1.142,0,0,0,1.973,0l4.988-8.64h-.03S-815.405,549.151-815.386,546.643Zm-8.762,3.441a4.309,4.309,0,0,1-4.31-4.31,4.309,4.309,0,0,1,4.31-4.31,4.313,4.313,0,0,1,4.315,4.31A4.313,4.313,0,0,1-824.148,550.084Z" transform="translate(832.911 -537.799)" fill="#45484b"/>
</svg>
